<svg width="48" height="48" viewBox="0 0 48 48" fill="none" xmlns="http://www.w3.org/2000/svg">
<path d="M3.68899 9.73459C3.87572 9.47079 4.23884 9.40484 4.50802 9.59157L7.3884 11.6088C7.6522 11.7956 7.71816 12.1587 7.53142 12.4279C7.34469 12.6917 6.98157 12.7576 6.7124 12.5709L3.83201 10.5536C3.56783 10.3669 3.50187 9.9984 3.68899 9.73459Z" fill="white"/>
<path d="M0.846869 23.9382L3.81501 22.0471C4.08993 21.8711 4.45266 21.9535 4.62291 22.2285C4.79891 22.5034 4.71647 22.8661 4.44154 23.0364L1.4734 24.9275C1.19848 25.1035 0.835747 25.0211 0.6655 24.7461C0.49487 24.477 0.571943 24.1142 0.846869 23.9382Z" fill="white"/>
<path d="M16.4464 5.89196C16.3751 6.20523 16.0614 6.40883 15.7481 6.33713C15.4349 6.26582 15.2313 5.95216 15.303 5.6389L16.0614 2.20332C16.1327 1.89006 16.4464 1.68646 16.7596 1.75815C17.0729 1.82947 17.2765 2.14312 17.2048 2.45639L16.4464 5.89196Z" fill="white"/>
<path d="M1.23652 17.4961C1.18169 17.1774 1.39028 16.8749 1.7093 16.8143L5.17245 16.2043C5.49109 16.1494 5.79362 16.358 5.8542 16.677C5.90903 16.9957 5.69469 17.2982 5.38143 17.3588L1.91827 17.9688C1.59925 18.029 1.29672 17.8147 1.23652 17.4961Z" fill="white"/>
<path d="M10.9556 9.3989C10.6369 9.45373 10.3344 9.24514 10.2738 8.92612L9.66377 5.46297C9.60894 5.14433 9.81753 4.8418 10.1365 4.78122C10.4552 4.72639 10.7577 4.93498 10.8183 5.25399L11.4283 8.71715C11.4885 9.03617 11.2742 9.33831 10.9556 9.3989Z" fill="white"/>
<path d="M10.2056 29.0658C10.8141 28.4139 11.818 28.3403 12.5388 28.8629L16.4196 31.6763C16.5131 31.744 16.6482 31.6791 16.6497 31.5646L16.6529 31.5603C16.653 31.513 16.6307 31.4694 16.5907 31.4403L9.86623 26.5655C9.03392 25.9621 8.9128 24.7339 9.63593 23.961C10.2444 23.3091 11.2483 23.2355 11.9691 23.7581L17.8082 27.9911C17.884 28.046 17.9913 28.0286 18.046 27.9532C18.1009 27.8774 18.0835 27.7701 18.0081 27.7154L9.88595 21.8273C9.1204 21.2723 8.94401 20.2143 9.48194 19.4435C10.0352 18.6431 11.1584 18.4794 11.9463 19.0506L20.856 25.5096C20.9051 25.5452 20.9732 25.5538 21.0277 25.5256L21.0309 25.5213C21.1445 25.4678 21.1583 25.3082 21.0559 25.234L14.0734 20.1716C13.3078 19.6166 13.1315 18.5586 13.6694 17.7878C14.2226 16.9874 15.3458 16.8236 16.1338 17.3948L26.1164 24.6317C26.1741 24.6735 26.2514 24.614 26.2205 24.5442L24.9994 21.7987C24.6126 20.9277 25.0038 19.9009 25.8747 19.5141C26.7457 19.1273 27.7682 19.5153 28.1594 20.3894C28.6204 21.4297 29.0815 22.47 29.5425 23.5104C30.5363 25.745 31.5226 27.9807 32.5055 30.2211C33.0435 31.4461 33.5202 32.5863 33.4712 33.9559C33.4197 35.4321 32.8846 36.9385 32.0296 38.1179C29.6195 41.4424 24.9574 42.1976 21.6329 39.7875L10.4359 31.6704C9.60362 31.067 9.48273 29.8385 10.2056 29.0659L10.2056 29.0658Z" fill="white"/>
<path d="M12.2056 25.0658C12.8141 24.4139 13.818 24.3403 14.5388 24.8629L18.4196 27.6763C18.5131 27.744 18.6482 27.6791 18.6497 27.5646L18.6529 27.5603C18.653 27.513 18.6307 27.4694 18.5907 27.4403L11.8662 22.5655C11.0339 21.9621 10.9128 20.7339 11.6359 19.961C12.2444 19.3091 13.2483 19.2355 13.9691 19.7581L19.8082 23.9911C19.884 24.046 19.9913 24.0286 20.046 23.9532C20.1009 23.8774 20.0835 23.7701 20.0081 23.7154L11.8859 17.8273C11.1204 17.2723 10.944 16.2143 11.4819 15.4435C12.0352 14.6431 13.1584 14.4794 13.9463 15.0506L22.856 21.5096C22.9051 21.5452 22.9732 21.5538 23.0277 21.5256L23.0309 21.5213C23.1445 21.4677 23.1583 21.3082 23.0559 21.234L16.0734 16.1716C15.3078 15.6166 15.1315 14.5586 15.6694 13.7878C16.2226 12.9874 17.3458 12.8236 18.1338 13.3948L28.1164 20.6316C28.1741 20.6735 28.2514 20.614 28.2205 20.5442L26.9994 17.7987C26.6126 16.9277 27.0038 15.9008 27.8747 15.514C28.7457 15.1272 29.7682 15.5153 30.1594 16.3893C30.6204 17.4297 31.0815 18.47 31.5425 19.5104C32.5363 21.745 33.5226 23.9807 34.5055 26.2211C35.0435 27.446 35.5202 28.5863 35.4712 29.9559C35.4197 31.4321 34.8846 32.9385 34.0296 34.1179C31.6195 37.4424 26.9574 38.1976 23.6329 35.7875L12.4359 27.6704C11.6036 27.067 11.4827 25.8385 12.2056 25.0659L12.2056 25.0658Z" fill="white" fill-opacity="0.6"/>
</svg>
