<svg width="48" height="48" viewBox="0 0 48 48" fill="none" xmlns="http://www.w3.org/2000/svg">
<path d="M3.68887 9.73457C3.8756 9.47077 4.23872 9.40482 4.50789 9.59155L7.38828 11.6088C7.65208 11.7956 7.71804 12.1587 7.5313 12.4278C7.34457 12.6917 6.98145 12.7576 6.71228 12.5709L3.83189 10.5536C3.5677 10.3669 3.50175 9.99839 3.68887 9.73457Z" fill="white"/>
<path d="M0.846869 23.9382L3.81501 22.0471C4.08993 21.8711 4.45266 21.9535 4.62291 22.2285C4.79891 22.5034 4.71647 22.8661 4.44154 23.0364L1.4734 24.9275C1.19848 25.1035 0.835747 25.0211 0.6655 24.7461C0.49487 24.477 0.571943 24.1142 0.846869 23.9382Z" fill="white"/>
<path d="M16.4464 5.89195C16.3751 6.20521 16.0614 6.40881 15.7481 6.33712C15.4349 6.2658 15.2313 5.95215 15.303 5.63888L16.0614 2.20331C16.1327 1.89004 16.4464 1.68644 16.7596 1.75814C17.0729 1.82946 17.2765 2.14311 17.2048 2.45637L16.4464 5.89195Z" fill="white"/>
<path d="M1.23665 17.4961C1.18182 17.1774 1.3904 16.8749 1.70942 16.8143L5.17258 16.2043C5.49121 16.1494 5.79374 16.358 5.85432 16.677C5.90915 16.9957 5.69481 17.2982 5.38155 17.3588L1.91839 17.9688C1.59937 18.029 1.29685 17.8147 1.23665 17.4961Z" fill="white"/>
<path d="M10.9554 9.39888C10.6368 9.45371 10.3343 9.24512 10.2737 8.9261L9.66365 5.46295C9.60882 5.14431 9.81741 4.84179 10.1364 4.7812C10.4551 4.72637 10.7576 4.93496 10.8182 5.25398L11.4282 8.71713C11.4884 9.03615 11.2741 9.33829 10.9554 9.39888Z" fill="white"/>
<path d="M19.1161 27.7731C18.9821 28.1725 18.4761 28.3347 18.1262 28.0811L14.2453 25.2677C13.7228 24.8888 13.0098 24.9474 12.5806 25.3969L12.5707 25.4075C12.0504 25.9635 12.1442 26.8413 12.7294 27.2655L23.9263 35.3827C27.0261 37.6299 31.3759 36.9265 33.6248 33.8244C34.4232 32.723 34.9236 31.3122 34.9715 29.9384L34.9715 29.938C35.016 28.6963 34.5884 27.6532 34.0477 26.4221L34.0476 26.4219C33.065 24.1821 32.0791 21.9472 31.0856 19.7136L31.0853 19.7129L29.703 16.5936C29.7029 16.5934 29.7028 16.5932 29.7027 16.593C29.4244 15.9718 28.6976 15.6957 28.0777 15.971C27.4611 16.2448 27.1809 16.9751 27.4563 17.5955L19.1161 27.7731ZM19.1161 27.7731L19.1524 27.7231L19.1529 27.5619C19.1536 27.3487 19.0502 27.1558 18.8841 27.0355L12.1597 22.1606C11.5744 21.7363 11.4805 20.8589 12.001 20.3026L12.0014 20.3021C12.4296 19.8434 13.1492 19.7812 13.6756 20.1629L19.5147 24.3959C19.8147 24.6133 20.2345 24.5451 20.4508 24.2466C20.6682 23.9467 20.6 23.5269 20.3015 23.3106L12.1794 17.4225C11.6346 17.0276 11.51 16.2769 11.892 15.7297L11.8932 15.7278C12.2787 15.1702 13.0801 15.0401 13.6529 15.4554L22.5626 21.9144C22.7468 22.048 23.0164 22.0943 23.2573 21.9698L23.3628 21.9152L23.3844 21.8854M19.1161 27.7731L23.3844 21.8854M23.3844 21.8854C23.7137 21.6168 23.7074 21.0887 23.3494 20.8291C23.3494 20.8291 23.3494 20.8291 23.3493 20.8291L16.3669 15.7667L16.3669 15.7667C15.8221 15.3718 15.6975 14.6211 16.0794 14.0739L16.0807 14.0721C16.4661 13.5144 17.2675 13.3844 17.8403 13.7996L27.8229 21.0364C28.2959 21.3793 28.9145 20.8766 28.6777 20.3417L28.6773 20.341L27.4564 17.5957L23.3844 21.8854Z" stroke="white"/>
<path d="M17.1161 31.7731C16.9821 32.1725 16.4761 32.3347 16.1262 32.0811L12.2453 29.2677C11.7228 28.8888 11.0098 28.9474 10.5806 29.3969L10.5707 29.4075C10.0504 29.9635 10.1442 30.8413 10.7294 31.2655L21.9263 39.3827C25.0261 41.6299 29.3759 40.9265 31.6248 37.8244C32.4232 36.723 32.9236 35.3122 32.9715 33.9384L32.9715 33.938C33.016 32.6963 32.5884 31.6532 32.0477 30.4221L32.0476 30.4219C31.065 28.1821 30.0791 25.9472 29.0856 23.7136L29.0853 23.7129L27.703 20.5936C27.7029 20.5934 27.7028 20.5932 27.7027 20.593C27.4244 19.9718 26.6976 19.6957 26.0777 19.971C25.4611 20.2448 25.1809 20.9751 25.4563 21.5955L17.1161 31.7731ZM17.1161 31.7731L17.1524 31.7231L17.1529 31.5619C17.1536 31.3487 17.0502 31.1558 16.8841 31.0355L10.1597 26.1606C9.57443 25.7363 9.48052 24.8589 10.001 24.3026L10.0014 24.3021C10.4296 23.8434 11.1492 23.7812 11.6756 24.1629L17.5147 28.3959C17.8147 28.6133 18.2345 28.5451 18.4508 28.2466C18.6682 27.9467 18.6 27.5269 18.3015 27.3106L10.1794 21.4225C9.63464 21.0276 9.51004 20.2769 9.89197 19.7297L9.89325 19.7278C10.2787 19.1702 11.0801 19.0401 11.6529 19.4554L20.5626 25.9144C20.7468 26.048 21.0164 26.0943 21.2573 25.9698L21.3628 25.9152L21.3844 25.8854M17.1161 31.7731L21.3844 25.8854M21.3844 25.8854C21.7137 25.6168 21.7074 25.0887 21.3494 24.8291C21.3494 24.8291 21.3494 24.8291 21.3493 24.8291L14.3669 19.7667L14.3669 19.7667C13.8221 19.3718 13.6975 18.6211 14.0794 18.0739L14.0807 18.0721C14.4661 17.5144 15.2675 17.3844 15.8403 17.7996L25.8229 25.0364C26.2959 25.3793 26.9145 24.8766 26.6777 24.3417L26.6773 24.341L25.4564 21.5957L21.3844 25.8854Z" fill="#EAAAA9" stroke="white"/>
</svg>
