<svg width="32" height="32" viewBox="0 0 32 32" fill="none" xmlns="http://www.w3.org/2000/svg">
<g clip-path="url(#clip0_96_5196)">
<path d="M16 6C17.315 6 18.5762 6.52239 19.5061 7.45226C20.4359 8.38213 20.9583 9.6433 20.9583 10.9583C20.9583 12.2734 20.4359 13.5345 19.5061 14.4644C18.5762 15.3943 17.315 15.9167 16 15.9167C14.685 15.9167 13.4238 15.3943 12.4939 14.4644C11.5641 13.5345 11.0417 12.2734 11.0417 10.9583C11.0417 9.6433 11.5641 8.38213 12.4939 7.45226C13.4238 6.52239 14.685 6 16 6ZM6.08333 9.54167C6.87667 9.54167 7.61333 9.75417 8.25083 10.1367C8.03833 12.1625 8.63333 14.1742 9.85167 15.7467C9.14333 17.1067 7.72667 18.0417 6.08333 18.0417C4.95616 18.0417 3.87516 17.5939 3.07813 16.7969C2.2811 15.9998 1.83333 14.9188 1.83333 13.7917C1.83333 12.6645 2.2811 11.5835 3.07813 10.7865C3.87516 9.98943 4.95616 9.54167 6.08333 9.54167ZM25.9167 9.54167C27.0438 9.54167 28.1248 9.98943 28.9219 10.7865C29.7189 11.5835 30.1667 12.6645 30.1667 13.7917C30.1667 14.9188 29.7189 15.9998 28.9219 16.7969C28.1248 17.5939 27.0438 18.0417 25.9167 18.0417C24.2733 18.0417 22.8567 17.1067 22.1483 15.7467C23.3667 14.1742 23.9617 12.1625 23.7492 10.1367C24.3867 9.75417 25.1233 9.54167 25.9167 9.54167ZM6.79167 24.0625C6.79167 21.13 10.9142 18.75 16 18.75C21.0858 18.75 25.2083 21.13 25.2083 24.0625V26.5417H6.79167V24.0625ZM-1 26.5417V24.4167C-1 22.4475 1.6775 20.79 5.30417 20.3083C4.46833 21.2717 3.95833 22.6033 3.95833 24.0625V26.5417H-1ZM33 26.5417H28.0417V24.0625C28.0417 22.6033 27.5317 21.2717 26.6958 20.3083C30.3225 20.79 33 22.4475 33 24.4167V26.5417Z" fill="#FF6F52"/>
</g>
<defs>
<clipPath id="clip0_96_5196">
<rect width="32" height="32" fill="white"/>
</clipPath>
</defs>
</svg>
