<svg width="386" height="76" viewBox="0 0 386 76" fill="none" xmlns="http://www.w3.org/2000/svg">
<g filter="url(#filter0_d_805_14944)">
<rect x="14" y="10" width="358" height="48" rx="12" fill="#CCCCCC"/>
</g>
<path d="M166.465 41V29.08H170.913C171.723 29.08 172.438 29.2293 173.057 29.528C173.686 29.816 174.177 30.2427 174.529 30.808C174.881 31.3627 175.057 32.04 175.057 32.84C175.057 33.6293 174.875 34.3067 174.513 34.872C174.161 35.4267 173.675 35.8533 173.057 36.152C172.438 36.4507 171.723 36.6 170.913 36.6H168.641V41H166.465ZM168.641 34.68H170.945C171.339 34.68 171.681 34.6053 171.969 34.456C172.257 34.296 172.481 34.0773 172.641 33.8C172.801 33.5227 172.881 33.2027 172.881 32.84C172.881 32.4667 172.801 32.1467 172.641 31.88C172.481 31.6027 172.257 31.3893 171.969 31.24C171.681 31.08 171.339 31 170.945 31H168.641V34.68ZM179.768 41.192C179.096 41.192 178.509 41.0427 178.008 40.744C177.517 40.4453 177.138 40.0293 176.872 39.496C176.616 38.9627 176.488 38.3387 176.488 37.624V32.296H178.584V37.448C178.584 37.8107 178.653 38.1307 178.792 38.408C178.941 38.6747 179.149 38.888 179.416 39.048C179.693 39.1973 180.002 39.272 180.344 39.272C180.685 39.272 180.989 39.1973 181.256 39.048C181.522 38.888 181.73 38.6693 181.88 38.392C182.029 38.1147 182.104 37.784 182.104 37.4V32.296H184.2V41H182.216V39.288L182.392 39.592C182.189 40.1253 181.853 40.5253 181.384 40.792C180.925 41.0587 180.386 41.192 179.768 41.192ZM190.9 41.192C190.271 41.192 189.689 41.0693 189.156 40.824C188.633 40.568 188.217 40.2053 187.908 39.736L188.116 39.32V41H186.148V28.888H188.244V34.024L187.924 33.592C188.223 33.1227 188.628 32.76 189.14 32.504C189.652 32.2373 190.244 32.104 190.916 32.104C191.737 32.104 192.479 32.3067 193.14 32.712C193.801 33.1173 194.324 33.6613 194.708 34.344C195.103 35.0267 195.3 35.7947 195.3 36.648C195.3 37.4907 195.108 38.2587 194.724 38.952C194.34 39.6453 193.817 40.1947 193.156 40.6C192.495 40.9947 191.743 41.192 190.9 41.192ZM190.66 39.272C191.14 39.272 191.567 39.16 191.94 38.936C192.313 38.712 192.601 38.4027 192.804 38.008C193.017 37.6133 193.124 37.16 193.124 36.648C193.124 36.136 193.017 35.688 192.804 35.304C192.601 34.9093 192.313 34.6 191.94 34.376C191.567 34.1413 191.14 34.024 190.66 34.024C190.201 34.024 189.785 34.136 189.412 34.36C189.049 34.584 188.761 34.8987 188.548 35.304C188.345 35.6987 188.244 36.1467 188.244 36.648C188.244 37.16 188.345 37.6133 188.548 38.008C188.761 38.4027 189.049 38.712 189.412 38.936C189.785 39.16 190.201 39.272 190.66 39.272ZM196.898 41V28.888H198.994V41H196.898ZM200.929 41V32.296H203.025V41H200.929ZM200.929 31.32V29.08H203.025V31.32H200.929ZM208.272 41.192C207.344 41.192 206.534 40.9733 205.84 40.536C205.158 40.088 204.688 39.4853 204.432 38.728L206 37.976C206.224 38.4667 206.534 38.8507 206.928 39.128C207.334 39.4053 207.782 39.544 208.272 39.544C208.656 39.544 208.96 39.4587 209.184 39.288C209.408 39.1173 209.52 38.8933 209.52 38.616C209.52 38.4453 209.472 38.3067 209.376 38.2C209.291 38.0827 209.168 37.9867 209.008 37.912C208.859 37.8267 208.694 37.7573 208.512 37.704L207.088 37.304C206.352 37.0907 205.792 36.7653 205.408 36.328C205.035 35.8907 204.848 35.3733 204.848 34.776C204.848 34.2427 204.982 33.7787 205.248 33.384C205.526 32.9787 205.904 32.664 206.384 32.44C206.875 32.216 207.435 32.104 208.064 32.104C208.886 32.104 209.611 32.3013 210.24 32.696C210.87 33.0907 211.318 33.6453 211.584 34.36L209.984 35.112C209.835 34.7173 209.584 34.4027 209.232 34.168C208.88 33.9333 208.486 33.816 208.048 33.816C207.696 33.816 207.419 33.896 207.216 34.056C207.014 34.216 206.912 34.424 206.912 34.68C206.912 34.84 206.955 34.9787 207.04 35.096C207.126 35.2133 207.243 35.3093 207.392 35.384C207.552 35.4587 207.734 35.528 207.936 35.592L209.328 36.008C210.043 36.2213 210.592 36.5413 210.976 36.968C211.371 37.3947 211.568 37.9173 211.568 38.536C211.568 39.0587 211.43 39.5227 211.152 39.928C210.875 40.3227 210.491 40.632 210 40.856C209.51 41.08 208.934 41.192 208.272 41.192ZM213.179 41V28.888H215.275V34.008L214.987 33.704C215.19 33.1813 215.52 32.7867 215.979 32.52C216.448 32.2427 216.992 32.104 217.611 32.104C218.251 32.104 218.816 32.2427 219.307 32.52C219.808 32.7973 220.198 33.1867 220.475 33.688C220.752 34.1787 220.891 34.7493 220.891 35.4V41H218.795V35.896C218.795 35.512 218.72 35.1813 218.571 34.904C218.422 34.6267 218.214 34.4133 217.947 34.264C217.691 34.104 217.387 34.024 217.035 34.024C216.694 34.024 216.39 34.104 216.123 34.264C215.856 34.4133 215.648 34.6267 215.499 34.904C215.35 35.1813 215.275 35.512 215.275 35.896V41H213.179Z" fill="#929292"/>
<defs>
<filter id="filter0_d_805_14944" x="0" y="0" width="386" height="76" filterUnits="userSpaceOnUse" color-interpolation-filters="sRGB">
<feFlood flood-opacity="0" result="BackgroundImageFix"/>
<feColorMatrix in="SourceAlpha" type="matrix" values="0 0 0 0 0 0 0 0 0 0 0 0 0 0 0 0 0 0 127 0" result="hardAlpha"/>
<feOffset dy="4"/>
<feGaussianBlur stdDeviation="7"/>
<feComposite in2="hardAlpha" operator="out"/>
<feColorMatrix type="matrix" values="0 0 0 0 0 0 0 0 0 0 0 0 0 0 0 0 0 0 0.07 0"/>
<feBlend mode="normal" in2="BackgroundImageFix" result="effect1_dropShadow_805_14944"/>
<feBlend mode="normal" in="SourceGraphic" in2="effect1_dropShadow_805_14944" result="shape"/>
</filter>
</defs>
</svg>
