<svg width="82" height="35" viewBox="0 0 82 35" fill="none" xmlns="http://www.w3.org/2000/svg">
<rect width="82" height="35" rx="8" fill="white" fill-opacity="0.19"/>
<path d="M22.5511 24V11.335H24.3531L31.3231 20.719L30.3881 20.906V11.335H32.7001V24H30.8811L24.0131 14.548L24.8631 14.361V24H22.5511ZM39.3507 24.204C38.3987 24.204 37.5657 23.9887 36.8517 23.558C36.1377 23.1273 35.5824 22.5437 35.1857 21.807C34.7891 21.0703 34.5907 20.2543 34.5907 19.359C34.5907 18.4297 34.7891 17.608 35.1857 16.894C35.5937 16.1687 36.1434 15.5963 36.8347 15.177C37.5374 14.7577 38.3194 14.548 39.1807 14.548C39.9061 14.548 40.5407 14.667 41.0847 14.905C41.6401 15.143 42.1104 15.4717 42.4957 15.891C42.8811 16.3103 43.1757 16.792 43.3797 17.336C43.5837 17.8687 43.6857 18.4467 43.6857 19.07C43.6857 19.2287 43.6744 19.393 43.6517 19.563C43.6404 19.733 43.6121 19.8803 43.5667 20.005H36.4267V18.305H42.3087L41.2547 19.104C41.3567 18.5827 41.3284 18.118 41.1697 17.71C41.0224 17.302 40.7731 16.979 40.4217 16.741C40.0817 16.503 39.6681 16.384 39.1807 16.384C38.7161 16.384 38.3024 16.503 37.9397 16.741C37.5771 16.9677 37.2994 17.3077 37.1067 17.761C36.9254 18.203 36.8574 18.7413 36.9027 19.376C36.8574 19.9427 36.9311 20.447 37.1237 20.889C37.3277 21.3197 37.6224 21.654 38.0077 21.892C38.4044 22.13 38.8577 22.249 39.3677 22.249C39.8777 22.249 40.3084 22.1413 40.6597 21.926C41.0224 21.7107 41.3057 21.4217 41.5097 21.059L43.3117 21.943C43.1304 22.385 42.8471 22.776 42.4617 23.116C42.0764 23.456 41.6174 23.7223 41.0847 23.915C40.5634 24.1077 39.9854 24.204 39.3507 24.204ZM44.3749 24L47.6049 19.359L44.3579 14.752H46.9759L49.5089 18.492H48.3359L50.8689 14.752H53.4699L50.2399 19.359L53.4529 24H50.8519L48.3529 20.277H49.4919L46.9929 24H44.3749ZM58.9034 24.102C57.8607 24.102 57.0504 23.8187 56.4724 23.252C55.9057 22.674 55.6224 21.8637 55.6224 20.821V16.741H54.0244V14.752H54.1944C54.6477 14.752 54.9991 14.633 55.2484 14.395C55.4977 14.157 55.6224 13.8113 55.6224 13.358V12.644H57.8494V14.752H59.9744V16.741H57.8494V20.702C57.8494 21.008 57.9004 21.2687 58.0024 21.484C58.1157 21.6993 58.2857 21.8637 58.5124 21.977C58.7504 22.0903 59.0507 22.147 59.4134 22.147C59.4927 22.147 59.5834 22.1413 59.6854 22.13C59.7987 22.1187 59.9064 22.1073 60.0084 22.096V24C59.8497 24.0227 59.6684 24.0453 59.4644 24.068C59.2604 24.0907 59.0734 24.102 58.9034 24.102Z" fill="white" fill-opacity="0.49"/>
</svg>
