<svg width="13" height="14" viewBox="0 0 13 14" fill="none" xmlns="http://www.w3.org/2000/svg">
<path d="M6 0.333252L2.33333 6.33325H9.66667L6 0.333252ZM6 2.89325L7.28667 4.99992H4.70667L6 2.89325ZM9.66667 7.66658C8.00667 7.66658 6.66667 9.00659 6.66667 10.6666C6.66667 12.3266 8.00667 13.6666 9.66667 13.6666C11.3267 13.6666 12.6667 12.3266 12.6667 10.6666C12.6667 9.00659 11.3267 7.66658 9.66667 7.66658ZM9.66667 12.3333C8.74667 12.3333 8 11.5866 8 10.6666C8 9.74658 8.74667 8.99992 9.66667 8.99992C10.5867 8.99992 11.3333 9.74658 11.3333 10.6666C11.3333 11.5866 10.5867 12.3333 9.66667 12.3333ZM0 13.3333H5.33333V7.99992H0V13.3333ZM1.33333 9.33325H4V11.9999H1.33333V9.33325Z" fill="#43009B"/>
</svg>
