<svg width="32" height="32" viewBox="0 0 32 32" fill="none" xmlns="http://www.w3.org/2000/svg">
<path d="M18.92 18.92L8 24L13.08 13.08L24 7.99999M16 2.66666C14.249 2.66666 12.5152 3.01153 10.8976 3.6816C9.27988 4.35166 7.81003 5.33379 6.57191 6.5719C4.07143 9.07238 2.66667 12.4638 2.66667 16C2.66667 19.5362 4.07143 22.9276 6.57191 25.4281C7.81003 26.6662 9.27988 27.6483 10.8976 28.3184C12.5152 28.9884 14.249 29.3333 16 29.3333C19.5362 29.3333 22.9276 27.9286 25.4281 25.4281C27.9286 22.9276 29.3333 19.5362 29.3333 16C29.3333 14.249 28.9885 12.5152 28.3184 10.8975C27.6483 9.27987 26.6662 7.81001 25.4281 6.5719C24.19 5.33379 22.7201 4.35166 21.1024 3.6816C19.4848 3.01153 17.751 2.66666 16 2.66666ZM16 14.5333C15.611 14.5333 15.238 14.6878 14.9629 14.9629C14.6879 15.238 14.5333 15.611 14.5333 16C14.5333 16.389 14.6879 16.762 14.9629 17.0371C15.238 17.3121 15.611 17.4667 16 17.4667C16.389 17.4667 16.762 17.3121 17.0371 17.0371C17.3121 16.762 17.4667 16.389 17.4667 16C17.4667 15.611 17.3121 15.238 17.0371 14.9629C16.762 14.6878 16.389 14.5333 16 14.5333Z" fill="#C4C4C4"/>
</svg>
