<svg width="24" height="23" viewBox="0 0 24 23" fill="none" xmlns="http://www.w3.org/2000/svg">
<path d="M22.8688 18.0817H19.7014C19.2535 16.9821 18.1811 16.2084 16.9232 16.2084C15.6655 16.2084 14.5884 16.982 14.1403 18.0817H1.13123C0.506902 18.0817 0 18.5886 0 19.2129C0 19.8373 0.506902 20.3442 1.13123 20.3442H14.1403C14.5882 21.4438 15.6651 22.2175 16.9232 22.2175C18.181 22.2175 19.2535 21.4439 19.7014 20.3442H22.8688C23.4931 20.3442 24 19.8373 24 19.2129C24 18.5886 23.4931 18.0817 22.8688 18.0817ZM16.9232 20.7921C16.4933 20.7921 16.1041 20.62 15.8191 20.3442C15.5206 20.0544 15.3394 19.6564 15.3394 19.2129C15.3394 18.7695 15.5202 18.3715 15.8191 18.0817C16.1042 17.8059 16.4933 17.6338 16.9232 17.6338C17.3531 17.6338 17.7423 17.8059 18.0273 18.0817C18.3215 18.3715 18.5023 18.7695 18.5023 19.2129C18.5023 19.6564 18.3215 20.0544 18.0273 20.3442C17.742 20.62 17.3528 20.7921 16.9232 20.7921Z" fill="white"/>
<path d="M22.8688 10.3668H9.18093C8.73305 9.27625 7.66057 8.50266 6.40717 8.50266C5.14941 8.50266 4.07685 9.27627 3.62896 10.3668H1.13138C0.507055 10.3668 0.000152588 10.8737 0.000152588 11.498C0.000152588 12.1223 0.507055 12.6292 1.13138 12.6292H3.62896C4.07685 13.7242 5.14933 14.4981 6.40717 14.4981C7.66057 14.4981 8.73305 13.7245 9.18093 12.6292H22.8688C23.4931 12.6292 24 12.1223 24 11.498C24 10.8737 23.4931 10.3668 22.8688 10.3668ZM7.49783 12.6292C7.21723 12.9051 6.83279 13.0727 6.40733 13.0727C5.98187 13.0727 5.59301 12.9054 5.31239 12.6292C5.0138 12.3442 4.83263 11.9459 4.83263 11.498C4.83263 11.0545 5.01349 10.6517 5.31239 10.3668C5.59299 10.0909 5.98216 9.92329 6.40733 9.92329C6.8328 9.92329 7.21721 10.0906 7.49783 10.3668C7.79642 10.6518 7.98201 11.0545 7.98201 11.498C7.98201 11.9459 7.79642 12.3486 7.49783 12.6292Z" fill="white"/>
<path d="M22.8688 2.65584H19.7014C19.2535 1.55621 18.1811 0.782532 16.9232 0.782532C15.6655 0.782532 14.5884 1.55614 14.1403 2.65584H1.13123C0.506902 2.65584 0 3.16274 0 3.78707C0 4.41139 0.506902 4.91829 1.13123 4.91829H14.1403C14.5882 6.01324 15.6651 6.78716 16.9232 6.78716C18.181 6.78716 19.2535 6.01354 19.7014 4.91829H22.8688C23.4931 4.91829 24 4.41139 24 3.78707C24 3.16274 23.4931 2.65584 22.8688 2.65584ZM18.0225 4.91829C17.7375 5.19416 17.3527 5.36618 16.9229 5.36618C16.493 5.36618 16.1038 5.19416 15.8188 4.91829C15.5202 4.62855 15.3391 4.23053 15.3391 3.78707C15.3391 3.3436 15.5199 2.94083 15.8188 2.65584C16.1038 2.37524 16.493 2.20322 16.9229 2.20322C17.3528 2.20322 17.7372 2.37524 18.0225 2.65584C18.3211 2.94085 18.5023 3.3436 18.5023 3.78707C18.5023 4.23053 18.3211 4.62886 18.0225 4.91829Z" fill="white"/>
</svg>
