<svg width="24" height="24" viewBox="0 0 24 24" fill="none" xmlns="http://www.w3.org/2000/svg">
<path d="M23.7224 0L20.2359 3.48654C18.0905 1.33589 15.1317 -3.75512e-07 11.8612 -5.18469e-07C5.32098 -8.04352e-07 5.41269e-05 5.32092 5.3841e-05 11.8612C5.35551e-05 18.4014 5.32098 23.7224 11.8612 23.7224C18.4015 23.7224 23.7224 18.4014 23.7224 11.8612L21.3502 11.8612C21.3502 17.0931 17.0932 21.3501 11.8612 21.3501C6.62927 21.3501 2.37229 17.0931 2.37229 11.8612C2.37229 6.62921 6.62927 2.37224 11.8612 2.37224C14.4778 2.37224 16.8462 3.44031 18.5633 5.15915L15.4196 8.30282L23.7224 8.30283L23.7224 0Z" fill="white"/>
<path d="M8.86235 15.4132V10.009H7.74147V9.44852H9.50285V15.4132H8.86235ZM12.8022 15.5093C12.4926 15.5093 12.2044 15.4559 11.9375 15.3492C11.676 15.2424 11.4465 15.0903 11.249 14.8928C11.0515 14.6953 10.902 14.4605 10.8006 14.1882L11.289 13.9481C11.4118 14.2576 11.6119 14.5032 11.8895 14.6846C12.1724 14.8608 12.4766 14.9488 12.8022 14.9488C13.0637 14.9488 13.2959 14.8875 13.4987 14.7647C13.7069 14.6419 13.8697 14.4765 13.9871 14.2683C14.1046 14.0548 14.1633 13.8173 14.1633 13.5557C14.1633 13.2835 14.1019 13.0433 13.9791 12.8352C13.8617 12.627 13.7016 12.4642 13.4987 12.3468C13.2959 12.224 13.0664 12.1627 12.8102 12.1627C12.5487 12.1627 12.3058 12.224 12.0816 12.3468C11.8628 12.4642 11.7027 12.6083 11.6013 12.7791L11.0969 12.6831L11.5452 9.44852H14.5636V10.009H11.7774L12.0256 9.79279L11.6653 12.3388L11.4171 12.2267C11.6039 11.9972 11.8228 11.8344 12.0736 11.7383C12.3245 11.6369 12.5807 11.5862 12.8422 11.5862C13.2265 11.5862 13.5655 11.6769 13.859 11.8584C14.1526 12.0346 14.3821 12.2721 14.5476 12.571C14.7184 12.8645 14.8038 13.1928 14.8038 13.5557C14.8038 13.924 14.7157 14.2576 14.5396 14.5565C14.3688 14.8501 14.1312 15.0823 13.827 15.2531C13.5281 15.4239 13.1865 15.5093 12.8022 15.5093Z" fill="white"/>
</svg>
