<svg width="386" height="76" viewBox="0 0 386 76" fill="none" xmlns="http://www.w3.org/2000/svg">
<g filter="url(#filter0_d_906_7720)">
<rect x="14" y="10" width="358" height="48" rx="12" fill="#43009B"/>
</g>
<path d="M112.097 41.192C111.244 41.192 110.454 41.0373 109.729 40.728C109.004 40.4187 108.369 39.9867 107.825 39.432C107.281 38.8773 106.854 38.2267 106.545 37.48C106.246 36.7333 106.097 35.9173 106.097 35.032C106.097 34.1467 106.241 33.3307 106.529 32.584C106.828 31.8267 107.244 31.176 107.777 30.632C108.321 30.0773 108.956 29.6507 109.681 29.352C110.406 29.0427 111.196 28.888 112.049 28.888C112.902 28.888 113.665 29.032 114.337 29.32C115.02 29.608 115.596 29.992 116.065 30.472C116.534 30.9413 116.87 31.4587 117.073 32.024L115.137 32.952C114.913 32.3333 114.534 31.832 114.001 31.448C113.468 31.064 112.817 30.872 112.049 30.872C111.302 30.872 110.641 31.048 110.065 31.4C109.5 31.752 109.057 32.2373 108.737 32.856C108.428 33.4747 108.273 34.2 108.273 35.032C108.273 35.864 108.433 36.5947 108.753 37.224C109.084 37.8427 109.537 38.328 110.113 38.68C110.689 39.032 111.35 39.208 112.097 39.208C112.705 39.208 113.265 39.0907 113.777 38.856C114.289 38.6107 114.7 38.2693 115.009 37.832C115.318 37.384 115.473 36.856 115.473 36.248V35.336L116.465 36.2H112.049V34.36H117.649V35.56C117.649 36.4773 117.494 37.288 117.185 37.992C116.876 38.696 116.454 39.288 115.921 39.768C115.398 40.2373 114.806 40.5947 114.145 40.84C113.484 41.0747 112.801 41.192 112.097 41.192ZM123.451 41.192C122.597 41.192 121.819 40.9947 121.115 40.6C120.421 40.2053 119.867 39.6667 119.451 38.984C119.045 38.3013 118.843 37.5227 118.843 36.648C118.843 35.7733 119.045 34.9947 119.451 34.312C119.867 33.6293 120.421 33.0907 121.115 32.696C121.808 32.3013 122.587 32.104 123.451 32.104C124.304 32.104 125.077 32.3013 125.771 32.696C126.464 33.0907 127.013 33.6293 127.419 34.312C127.835 34.984 128.043 35.7627 128.043 36.648C128.043 37.5227 127.835 38.3013 127.419 38.984C127.003 39.6667 126.448 40.2053 125.755 40.6C125.061 40.9947 124.293 41.192 123.451 41.192ZM123.451 39.272C123.92 39.272 124.331 39.16 124.683 38.936C125.045 38.712 125.328 38.4027 125.531 38.008C125.744 37.6027 125.851 37.1493 125.851 36.648C125.851 36.136 125.744 35.688 125.531 35.304C125.328 34.9093 125.045 34.6 124.683 34.376C124.331 34.1413 123.92 34.024 123.451 34.024C122.971 34.024 122.549 34.1413 122.187 34.376C121.824 34.6 121.536 34.9093 121.323 35.304C121.12 35.688 121.019 36.136 121.019 36.648C121.019 37.1493 121.12 37.6027 121.323 38.008C121.536 38.4027 121.824 38.712 122.187 38.936C122.549 39.16 122.971 39.272 123.451 39.272ZM136.444 41.096C135.463 41.096 134.7 40.8293 134.156 40.296C133.623 39.752 133.356 38.9893 133.356 38.008V34.168H131.852V32.296H132.012C132.439 32.296 132.769 32.184 133.004 31.96C133.239 31.736 133.356 31.4107 133.356 30.984V30.312H135.452V32.296H137.452V34.168H135.452V37.896C135.452 38.184 135.5 38.4293 135.596 38.632C135.703 38.8347 135.863 38.9893 136.076 39.096C136.3 39.2027 136.583 39.256 136.924 39.256C136.999 39.256 137.084 39.2507 137.18 39.24C137.287 39.2293 137.388 39.2187 137.484 39.208V41C137.335 41.0213 137.164 41.0427 136.972 41.064C136.78 41.0853 136.604 41.096 136.444 41.096ZM143.263 41.192C142.41 41.192 141.631 40.9947 140.927 40.6C140.234 40.2053 139.679 39.6667 139.263 38.984C138.858 38.3013 138.655 37.5227 138.655 36.648C138.655 35.7733 138.858 34.9947 139.263 34.312C139.679 33.6293 140.234 33.0907 140.927 32.696C141.621 32.3013 142.399 32.104 143.263 32.104C144.117 32.104 144.89 32.3013 145.583 32.696C146.277 33.0907 146.826 33.6293 147.231 34.312C147.647 34.984 147.855 35.7627 147.855 36.648C147.855 37.5227 147.647 38.3013 147.231 38.984C146.815 39.6667 146.261 40.2053 145.567 40.6C144.874 40.9947 144.106 41.192 143.263 41.192ZM143.263 39.272C143.733 39.272 144.143 39.16 144.495 38.936C144.858 38.712 145.141 38.4027 145.343 38.008C145.557 37.6027 145.663 37.1493 145.663 36.648C145.663 36.136 145.557 35.688 145.343 35.304C145.141 34.9093 144.858 34.6 144.495 34.376C144.143 34.1413 143.733 34.024 143.263 34.024C142.783 34.024 142.362 34.1413 141.999 34.376C141.637 34.6 141.349 34.9093 141.135 35.304C140.933 35.688 140.831 36.136 140.831 36.648C140.831 37.1493 140.933 37.6027 141.135 38.008C141.349 38.4027 141.637 38.712 141.999 38.936C142.362 39.16 142.783 39.272 143.263 39.272ZM152.465 41V29.08H154.545L159.009 35.144H158.017L162.385 29.08H164.465V41H162.273V31.56L163.121 31.768L158.593 37.8H158.337L153.921 31.768L154.641 31.56V41H152.465ZM167.626 44.536C167.391 44.536 167.162 44.5147 166.938 44.472C166.714 44.44 166.511 44.3813 166.33 44.296V42.536C166.468 42.568 166.634 42.6 166.826 42.632C167.028 42.664 167.215 42.68 167.386 42.68C167.866 42.68 168.212 42.568 168.426 42.344C168.65 42.12 168.847 41.8267 169.018 41.464L169.594 40.12L169.562 41.88L165.77 32.296H168.026L170.682 39.368H169.882L172.522 32.296H174.794L171.002 41.88C170.778 42.4453 170.506 42.9253 170.186 43.32C169.866 43.7147 169.492 44.0133 169.066 44.216C168.65 44.4293 168.17 44.536 167.626 44.536ZM184.565 41.192C183.711 41.192 182.922 41.0373 182.197 40.728C181.482 40.4187 180.853 39.9867 180.309 39.432C179.775 38.8773 179.359 38.2267 179.061 37.48C178.762 36.7333 178.613 35.9173 178.613 35.032C178.613 34.1467 178.757 33.3307 179.045 32.584C179.343 31.8267 179.759 31.176 180.293 30.632C180.837 30.0773 181.471 29.6507 182.197 29.352C182.922 29.0427 183.711 28.888 184.565 28.888C185.418 28.888 186.181 29.032 186.852 29.32C187.535 29.608 188.111 29.992 188.581 30.472C189.05 30.9413 189.386 31.4587 189.589 32.024L187.637 32.936C187.413 32.3387 187.034 31.848 186.501 31.464C185.967 31.0693 185.322 30.872 184.565 30.872C183.818 30.872 183.157 31.048 182.581 31.4C182.015 31.752 181.573 32.2373 181.253 32.856C180.943 33.4747 180.789 34.2 180.789 35.032C180.789 35.864 180.943 36.5947 181.253 37.224C181.573 37.8427 182.015 38.328 182.581 38.68C183.157 39.032 183.818 39.208 184.565 39.208C185.322 39.208 185.967 39.016 186.501 38.632C187.034 38.2373 187.413 37.7413 187.637 37.144L189.589 38.056C189.386 38.6213 189.05 39.144 188.581 39.624C188.111 40.0933 187.535 40.472 186.852 40.76C186.181 41.048 185.418 41.192 184.565 41.192ZM195.279 41.192C194.426 41.192 193.647 40.9947 192.943 40.6C192.25 40.2053 191.695 39.6667 191.279 38.984C190.874 38.3013 190.671 37.5227 190.671 36.648C190.671 35.7733 190.874 34.9947 191.279 34.312C191.695 33.6293 192.25 33.0907 192.943 32.696C193.636 32.3013 194.415 32.104 195.279 32.104C196.132 32.104 196.906 32.3013 197.599 32.696C198.292 33.0907 198.842 33.6293 199.247 34.312C199.663 34.984 199.871 35.7627 199.871 36.648C199.871 37.5227 199.663 38.3013 199.247 38.984C198.831 39.6667 198.276 40.2053 197.583 40.6C196.89 40.9947 196.122 41.192 195.279 41.192ZM195.279 39.272C195.748 39.272 196.159 39.16 196.511 38.936C196.874 38.712 197.156 38.4027 197.359 38.008C197.572 37.6027 197.679 37.1493 197.679 36.648C197.679 36.136 197.572 35.688 197.359 35.304C197.156 34.9093 196.874 34.6 196.511 34.376C196.159 34.1413 195.748 34.024 195.279 34.024C194.799 34.024 194.378 34.1413 194.015 34.376C193.652 34.6 193.364 34.9093 193.151 35.304C192.948 35.688 192.847 36.136 192.847 36.648C192.847 37.1493 192.948 37.6027 193.151 38.008C193.364 38.4027 193.652 38.712 194.015 38.936C194.378 39.16 194.799 39.272 195.279 39.272ZM201.46 41V32.296H203.428V34.312L203.204 33.976C203.364 33.3467 203.684 32.8773 204.164 32.568C204.644 32.2587 205.21 32.104 205.86 32.104C206.575 32.104 207.204 32.2907 207.748 32.664C208.292 33.0373 208.644 33.528 208.804 34.136L208.212 34.184C208.479 33.4907 208.879 32.9733 209.412 32.632C209.946 32.28 210.559 32.104 211.252 32.104C211.871 32.104 212.42 32.2427 212.9 32.52C213.391 32.7973 213.775 33.1867 214.052 33.688C214.33 34.1787 214.468 34.7493 214.468 35.4V41H212.372V35.896C212.372 35.512 212.303 35.1813 212.164 34.904C212.026 34.6267 211.834 34.4133 211.588 34.264C211.343 34.104 211.044 34.024 210.692 34.024C210.362 34.024 210.068 34.104 209.812 34.264C209.556 34.4133 209.359 34.6267 209.22 34.904C209.082 35.1813 209.012 35.512 209.012 35.896V41H206.916V35.896C206.916 35.512 206.847 35.1813 206.708 34.904C206.57 34.6267 206.372 34.4133 206.116 34.264C205.871 34.104 205.578 34.024 205.236 34.024C204.906 34.024 204.612 34.104 204.356 34.264C204.1 34.4133 203.903 34.6267 203.764 34.904C203.626 35.1813 203.556 35.512 203.556 35.896V41H201.46ZM216.242 41V32.296H218.21V34.312L217.986 33.976C218.146 33.3467 218.466 32.8773 218.946 32.568C219.426 32.2587 219.991 32.104 220.642 32.104C221.356 32.104 221.986 32.2907 222.53 32.664C223.074 33.0373 223.426 33.528 223.586 34.136L222.994 34.184C223.26 33.4907 223.66 32.9733 224.194 32.632C224.727 32.28 225.34 32.104 226.034 32.104C226.652 32.104 227.202 32.2427 227.682 32.52C228.172 32.7973 228.556 33.1867 228.834 33.688C229.111 34.1787 229.25 34.7493 229.25 35.4V41H227.154V35.896C227.154 35.512 227.084 35.1813 226.946 34.904C226.807 34.6267 226.615 34.4133 226.37 34.264C226.124 34.104 225.826 34.024 225.474 34.024C225.143 34.024 224.85 34.104 224.594 34.264C224.338 34.4133 224.14 34.6267 224.002 34.904C223.863 35.1813 223.794 35.512 223.794 35.896V41H221.698V35.896C221.698 35.512 221.628 35.1813 221.49 34.904C221.351 34.6267 221.154 34.4133 220.898 34.264C220.652 34.104 220.359 34.024 220.018 34.024C219.687 34.024 219.394 34.104 219.138 34.264C218.882 34.4133 218.684 34.6267 218.546 34.904C218.407 35.1813 218.338 35.512 218.338 35.896V41H216.242ZM234.127 41.192C233.455 41.192 232.868 41.0427 232.367 40.744C231.876 40.4453 231.498 40.0293 231.231 39.496C230.975 38.9627 230.847 38.3387 230.847 37.624V32.296H232.943V37.448C232.943 37.8107 233.012 38.1307 233.151 38.408C233.3 38.6747 233.508 38.888 233.775 39.048C234.052 39.1973 234.362 39.272 234.703 39.272C235.044 39.272 235.348 39.1973 235.615 39.048C235.882 38.888 236.09 38.6693 236.239 38.392C236.388 38.1147 236.463 37.784 236.463 37.4V32.296H238.559V41H236.575V39.288L236.751 39.592C236.548 40.1253 236.212 40.5253 235.743 40.792C235.284 41.0587 234.746 41.192 234.127 41.192ZM240.507 41V32.296H242.475V34.008L242.315 33.704C242.518 33.1813 242.849 32.7867 243.307 32.52C243.777 32.2427 244.321 32.104 244.939 32.104C245.579 32.104 246.145 32.2427 246.635 32.52C247.137 32.7973 247.526 33.1867 247.803 33.688C248.081 34.1787 248.219 34.7493 248.219 35.4V41H246.123V35.896C246.123 35.512 246.049 35.1813 245.899 34.904C245.75 34.6267 245.542 34.4133 245.275 34.264C245.019 34.104 244.715 34.024 244.363 34.024C244.022 34.024 243.718 34.104 243.451 34.264C243.185 34.4133 242.977 34.6267 242.827 34.904C242.678 35.1813 242.603 35.512 242.603 35.896V41H240.507ZM249.992 41V32.296H252.088V41H249.992ZM249.992 31.32V29.08H252.088V31.32H249.992ZM257.991 41.096C257.01 41.096 256.247 40.8293 255.703 40.296C255.17 39.752 254.903 38.9893 254.903 38.008V34.168H253.399V32.296H253.559C253.986 32.296 254.316 32.184 254.551 31.96C254.786 31.736 254.903 31.4107 254.903 30.984V30.312H256.999V32.296H258.999V34.168H256.999V37.896C256.999 38.184 257.047 38.4293 257.143 38.632C257.25 38.8347 257.41 38.9893 257.623 39.096C257.847 39.2027 258.13 39.256 258.471 39.256C258.546 39.256 258.631 39.2507 258.727 39.24C258.834 39.2293 258.935 39.2187 259.031 39.208V41C258.882 41.0213 258.711 41.0427 258.519 41.064C258.327 41.0853 258.151 41.096 257.991 41.096ZM260.632 41V32.296H262.728V41H260.632ZM260.632 31.32V29.08H262.728V31.32H260.632ZM268.792 41.192C267.896 41.192 267.112 40.9893 266.44 40.584C265.768 40.1787 265.245 39.6293 264.872 38.936C264.498 38.2427 264.312 37.4747 264.312 36.632C264.312 35.7573 264.498 34.984 264.872 34.312C265.256 33.6293 265.773 33.0907 266.424 32.696C267.085 32.3013 267.821 32.104 268.632 32.104C269.314 32.104 269.912 32.216 270.424 32.44C270.946 32.664 271.389 32.9733 271.752 33.368C272.114 33.7627 272.392 34.216 272.584 34.728C272.776 35.2293 272.872 35.7733 272.872 36.36C272.872 36.5093 272.861 36.664 272.84 36.824C272.829 36.984 272.802 37.1227 272.76 37.24H266.039V35.64H271.576L270.584 36.392C270.68 35.9013 270.653 35.464 270.504 35.08C270.365 34.696 270.13 34.392 269.8 34.168C269.48 33.944 269.09 33.832 268.632 33.832C268.194 33.832 267.805 33.944 267.464 34.168C267.122 34.3813 266.861 34.7013 266.68 35.128C266.509 35.544 266.445 36.0507 266.488 36.648C266.445 37.1813 266.514 37.656 266.696 38.072C266.888 38.4773 267.165 38.792 267.528 39.016C267.901 39.24 268.328 39.352 268.808 39.352C269.288 39.352 269.693 39.2507 270.024 39.048C270.365 38.8453 270.632 38.5733 270.824 38.232L272.52 39.064C272.349 39.48 272.082 39.848 271.72 40.168C271.357 40.488 270.925 40.7387 270.424 40.92C269.933 41.1013 269.389 41.192 268.792 41.192ZM277.772 41.192C276.844 41.192 276.034 40.9733 275.34 40.536C274.658 40.088 274.188 39.4853 273.932 38.728L275.5 37.976C275.724 38.4667 276.034 38.8507 276.428 39.128C276.834 39.4053 277.282 39.544 277.772 39.544C278.156 39.544 278.46 39.4587 278.684 39.288C278.908 39.1173 279.02 38.8933 279.02 38.616C279.02 38.4453 278.972 38.3067 278.876 38.2C278.791 38.0827 278.668 37.9867 278.508 37.912C278.359 37.8267 278.194 37.7573 278.012 37.704L276.588 37.304C275.852 37.0907 275.292 36.7653 274.908 36.328C274.535 35.8907 274.348 35.3733 274.348 34.776C274.348 34.2427 274.482 33.7787 274.748 33.384C275.026 32.9787 275.404 32.664 275.884 32.44C276.375 32.216 276.935 32.104 277.564 32.104C278.386 32.104 279.111 32.3013 279.74 32.696C280.37 33.0907 280.818 33.6453 281.084 34.36L279.484 35.112C279.335 34.7173 279.084 34.4027 278.732 34.168C278.38 33.9333 277.986 33.816 277.548 33.816C277.196 33.816 276.919 33.896 276.716 34.056C276.514 34.216 276.412 34.424 276.412 34.68C276.412 34.84 276.455 34.9787 276.54 35.096C276.626 35.2133 276.743 35.3093 276.892 35.384C277.052 35.4587 277.234 35.528 277.436 35.592L278.828 36.008C279.543 36.2213 280.092 36.5413 280.476 36.968C280.871 37.3947 281.068 37.9173 281.068 38.536C281.068 39.0587 280.93 39.5227 280.652 39.928C280.375 40.3227 279.991 40.632 279.5 40.856C279.01 41.08 278.434 41.192 277.772 41.192Z" fill="white"/>
<defs>
<filter id="filter0_d_906_7720" x="0" y="0" width="386" height="76" filterUnits="userSpaceOnUse" color-interpolation-filters="sRGB">
<feFlood flood-opacity="0" result="BackgroundImageFix"/>
<feColorMatrix in="SourceAlpha" type="matrix" values="0 0 0 0 0 0 0 0 0 0 0 0 0 0 0 0 0 0 127 0" result="hardAlpha"/>
<feOffset dy="4"/>
<feGaussianBlur stdDeviation="7"/>
<feComposite in2="hardAlpha" operator="out"/>
<feColorMatrix type="matrix" values="0 0 0 0 0 0 0 0 0 0 0 0 0 0 0 0 0 0 0.07 0"/>
<feBlend mode="normal" in2="BackgroundImageFix" result="effect1_dropShadow_906_7720"/>
<feBlend mode="normal" in="SourceGraphic" in2="effect1_dropShadow_906_7720" result="shape"/>
</filter>
</defs>
</svg>
