<svg width="28" height="27" viewBox="0 0 28 27" fill="none" xmlns="http://www.w3.org/2000/svg">
<path d="M12.6667 6.83329H15.3333V9.49996H12.6667V6.83329ZM12.6667 12.1666H15.3333V20.1666H12.6667V12.1666ZM14 0.166626C6.64 0.166626 0.666672 6.13996 0.666672 13.5C0.666672 20.86 6.64 26.8333 14 26.8333C21.36 26.8333 27.3333 20.86 27.3333 13.5C27.3333 6.13996 21.36 0.166626 14 0.166626ZM14 24.1666C8.12 24.1666 3.33334 19.38 3.33334 13.5C3.33334 7.61996 8.12 2.83329 14 2.83329C19.88 2.83329 24.6667 7.61996 24.6667 13.5C24.6667 19.38 19.88 24.1666 14 24.1666Z" fill="white"/>
</svg>
