<svg width="248" height="248" viewBox="0 0 248 248" fill="none" xmlns="http://www.w3.org/2000/svg">
<g filter="url(#filter0_d_346_9146)">
<circle cx="124" cy="116" r="96" fill="url(#paint0_radial_346_9146)" shape-rendering="crispEdges"/>
</g>
<circle cx="124" cy="116" r="96" fill="url(#paint1_radial_346_9146)" fill-opacity="0.4"/>
<g filter="url(#filter1_f_346_9146)">
<circle cx="124" cy="116" r="96" fill="url(#paint2_radial_346_9146)" fill-opacity="0.18"/>
</g>
<g clip-path="url(#clip0_346_9146)">
<path d="M126 132C132.64 132 137.96 126.64 137.96 120L138 96C138 89.36 132.64 84 126 84C119.36 84 114 89.36 114 96V120C114 126.64 119.36 132 126 132ZM147.2 120C147.2 132 137.04 140.4 126 140.4C114.96 140.4 104.8 132 104.8 120H98C98 133.64 108.88 144.92 122 146.88V160H130V146.88C143.12 144.96 154 133.68 154 120H147.2Z" fill="#FF6F52"/>
</g>
<defs>
<filter id="filter0_d_346_9146" x="0" y="0" width="248" height="248" filterUnits="userSpaceOnUse" color-interpolation-filters="sRGB">
<feFlood flood-opacity="0" result="BackgroundImageFix"/>
<feColorMatrix in="SourceAlpha" type="matrix" values="0 0 0 0 0 0 0 0 0 0 0 0 0 0 0 0 0 0 127 0" result="hardAlpha"/>
<feOffset dy="8"/>
<feGaussianBlur stdDeviation="14"/>
<feComposite in2="hardAlpha" operator="out"/>
<feColorMatrix type="matrix" values="0 0 0 0 0 0 0 0 0 0 0 0 0 0 0 0 0 0 0.14 0"/>
<feBlend mode="normal" in2="BackgroundImageFix" result="effect1_dropShadow_346_9146"/>
<feBlend mode="normal" in="SourceGraphic" in2="effect1_dropShadow_346_9146" result="shape"/>
</filter>
<filter id="filter1_f_346_9146" x="18" y="10" width="212" height="212" filterUnits="userSpaceOnUse" color-interpolation-filters="sRGB">
<feFlood flood-opacity="0" result="BackgroundImageFix"/>
<feBlend mode="normal" in="SourceGraphic" in2="BackgroundImageFix" result="shape"/>
<feGaussianBlur stdDeviation="5" result="effect1_foregroundBlur_346_9146"/>
</filter>
<radialGradient id="paint0_radial_346_9146" cx="0" cy="0" r="1" gradientUnits="userSpaceOnUse" gradientTransform="translate(124 116) rotate(90) scale(96)">
<stop stop-color="white"/>
<stop offset="1" stop-color="white" stop-opacity="0.79"/>
</radialGradient>
<radialGradient id="paint1_radial_346_9146" cx="0" cy="0" r="1" gradientUnits="userSpaceOnUse" gradientTransform="translate(124 116) rotate(90) scale(96)">
<stop stop-color="white"/>
<stop offset="1" stop-color="white" stop-opacity="0.79"/>
</radialGradient>
<radialGradient id="paint2_radial_346_9146" cx="0" cy="0" r="1" gradientUnits="userSpaceOnUse" gradientTransform="translate(124 116) rotate(90) scale(96)">
<stop stop-color="white"/>
<stop offset="1" stop-color="white" stop-opacity="0.79"/>
</radialGradient>
<clipPath id="clip0_346_9146">
<rect width="96" height="96" fill="white" transform="translate(78 76)"/>
</clipPath>
</defs>
</svg>
