<svg width="128" height="42" viewBox="0 0 128 42" fill="none" xmlns="http://www.w3.org/2000/svg">
<g opacity="0.5">
<path d="M0 21C0 9.40202 9.40202 0 21 0H107C118.598 0 128 9.40202 128 21V21C128 32.598 118.598 42 107 42H21C9.40202 42 0 32.598 0 21V21Z" fill="white"/>
<path d="M28 27C28.5304 27 29.0391 26.7893 29.4142 26.4142C29.7893 26.0391 30 25.5304 30 25C30 23.89 29.1 23 28 23C27.4696 23 26.9609 23.2107 26.5858 23.5858C26.2107 23.9609 26 24.4696 26 25C26 25.5304 26.2107 26.0391 26.5858 26.4142C26.9609 26.7893 27.4696 27 28 27ZM34 18C34.5304 18 35.0391 18.2107 35.4142 18.5858C35.7893 18.9609 36 19.4696 36 20V30C36 30.5304 35.7893 31.0391 35.4142 31.4142C35.0391 31.7893 34.5304 32 34 32H22C21.4696 32 20.9609 31.7893 20.5858 31.4142C20.2107 31.0391 20 30.5304 20 30V20C20 18.89 20.9 18 22 18H23V16C23 14.6739 23.5268 13.4021 24.4645 12.4645C25.4021 11.5268 26.6739 11 28 11C28.6566 11 29.3068 11.1293 29.9134 11.3806C30.52 11.6319 31.0712 12.0002 31.5355 12.4645C31.9998 12.9288 32.3681 13.48 32.6194 14.0866C32.8707 14.6932 33 15.3434 33 16V18H34ZM28 13C27.2044 13 26.4413 13.3161 25.8787 13.8787C25.3161 14.4413 25 15.2044 25 16V18H31V16C31 15.2044 30.6839 14.4413 30.1213 13.8787C29.5587 13.3161 28.7956 13 28 13Z" fill="#43009B"/>
<path d="M50.6757 26V16.315H54.2897C54.9484 16.315 55.5291 16.4363 56.0317 16.679C56.5431 16.913 56.9417 17.2597 57.2277 17.719C57.5137 18.1697 57.6567 18.72 57.6567 19.37C57.6567 20.0113 57.5094 20.5617 57.2147 21.021C56.9287 21.4717 56.5344 21.8183 56.0317 22.061C55.5291 22.3037 54.9484 22.425 54.2897 22.425H52.4437V26H50.6757ZM52.4437 20.865H54.3157C54.6364 20.865 54.9137 20.8043 55.1477 20.683C55.3817 20.553 55.5637 20.3753 55.6937 20.15C55.8237 19.9247 55.8887 19.6647 55.8887 19.37C55.8887 19.0667 55.8237 18.8067 55.6937 18.59C55.5637 18.3647 55.3817 18.1913 55.1477 18.07C54.9137 17.94 54.6364 17.875 54.3157 17.875H52.4437V20.865ZM59.1054 26V16.315H62.7064C63.3651 16.315 63.9458 16.4363 64.4484 16.679C64.9598 16.913 65.3584 17.2597 65.6444 17.719C65.9304 18.1697 66.0734 18.72 66.0734 19.37C66.0734 20.0373 65.9131 20.605 65.5924 21.073C65.2804 21.541 64.8558 21.8877 64.3184 22.113L66.5414 26H64.5394L62.1604 21.749L63.3044 22.425H60.8734V26H59.1054ZM60.8734 20.865H62.7324C63.0531 20.865 63.3304 20.8043 63.5644 20.683C63.7984 20.553 63.9804 20.3753 64.1104 20.15C64.2404 19.9247 64.3054 19.6647 64.3054 19.37C64.3054 19.0667 64.2404 18.8067 64.1104 18.59C63.9804 18.3647 63.7984 18.1913 63.5644 18.07C63.3304 17.94 63.0531 17.875 62.7324 17.875H60.8734V20.865ZM67.7002 26V16.315H69.4682V26H67.7002ZM73.918 26L70.538 16.315H72.462L75.114 24.336H74.737L77.389 16.315H79.313L75.946 26H73.918ZM79.0185 26L82.3595 16.315H84.6475L87.9885 26H86.0645L85.3755 23.92H81.6315L80.9295 26H79.0185ZM82.1385 22.36H84.8685L83.2565 17.537H83.7505L82.1385 22.36ZM90.1349 26V17.875H87.6259V16.315H94.3859V17.875H91.9159V26H90.1349ZM95.4648 26V16.315H101.9V17.875H97.2328V20.358H101.64V21.918H97.2328V24.44H101.9V26H95.4648Z" fill="#43009B"/>
</g>
</svg>
