<svg width="12" height="15" viewBox="0 0 12 15" fill="none" xmlns="http://www.w3.org/2000/svg">
<path d="M10.0001 4.83342H9.33342V3.50008C9.33342 1.66008 7.84008 0.166748 6.00008 0.166748C4.16008 0.166748 2.66675 1.66008 2.66675 3.50008V4.83342H2.00008C1.26675 4.83342 0.666748 5.43341 0.666748 6.16675V12.8334C0.666748 13.5667 1.26675 14.1667 2.00008 14.1667H10.0001C10.7334 14.1667 11.3334 13.5667 11.3334 12.8334V6.16675C11.3334 5.43341 10.7334 4.83342 10.0001 4.83342ZM6.00008 10.8334C5.26675 10.8334 4.66675 10.2334 4.66675 9.50008C4.66675 8.76675 5.26675 8.16675 6.00008 8.16675C6.73342 8.16675 7.33342 8.76675 7.33342 9.50008C7.33342 10.2334 6.73342 10.8334 6.00008 10.8334ZM8.06675 4.83342H3.93341V3.50008C3.93341 2.36008 4.86008 1.43341 6.00008 1.43341C7.14008 1.43341 8.06675 2.36008 8.06675 3.50008V4.83342Z" fill="white"/>
</svg>
