<svg width="16" height="17" viewBox="0 0 16 17" fill="none" xmlns="http://www.w3.org/2000/svg">
<path d="M12.72 12.812C12.512 12.172 11.912 11.7 11.2 11.7H10.4V9.3C10.4 9.08783 10.3157 8.88434 10.1657 8.73431C10.0157 8.58429 9.81217 8.5 9.6 8.5H4.8V6.9H6.4C6.61217 6.9 6.81566 6.81571 6.96569 6.66569C7.11571 6.51566 7.2 6.31217 7.2 6.1V4.5H8.8C9.22435 4.5 9.63131 4.33143 9.93137 4.03137C10.2314 3.73131 10.4 3.32435 10.4 2.9V2.572C12.744 3.516 14.4 5.812 14.4 8.5C14.4 10.164 13.76 11.676 12.72 12.812ZM7.2 14.844C4.04 14.452 1.6 11.764 1.6 8.5C1.6 8.004 1.664 7.524 1.768 7.068L5.6 10.9V11.7C5.6 12.1243 5.76857 12.5313 6.06863 12.8314C6.36869 13.1314 6.77565 13.3 7.2 13.3M8 0.5C6.94943 0.5 5.90914 0.706926 4.93853 1.10896C3.96793 1.511 3.08601 2.10028 2.34315 2.84315C0.842855 4.34344 0 6.37827 0 8.5C0 10.6217 0.842855 12.6566 2.34315 14.1569C3.08601 14.8997 3.96793 15.489 4.93853 15.891C5.90914 16.2931 6.94943 16.5 8 16.5C10.1217 16.5 12.1566 15.6571 13.6569 14.1569C15.1571 12.6566 16 10.6217 16 8.5C16 7.44943 15.7931 6.40914 15.391 5.43853C14.989 4.46793 14.3997 3.58601 13.6569 2.84315C12.914 2.10028 12.0321 1.511 11.0615 1.10896C10.0909 0.706926 9.05058 0.5 8 0.5Z" fill="white"/>
</svg>
