<svg width="128" height="42" viewBox="0 0 128 42" fill="none" xmlns="http://www.w3.org/2000/svg">
<g opacity="0.5">
<path d="M0 21C0 9.40202 9.40202 0 21 0H107C118.598 0 128 9.40202 128 21V21C128 32.598 118.598 42 107 42H21C9.40202 42 0 32.598 0 21V21Z" fill="white"/>
<path d="M33.9 26.39C33.64 25.59 32.89 25 32 25H31V22C31 21.7348 30.8946 21.4804 30.7071 21.2929C30.5196 21.1054 30.2652 21 30 21H24V19H26C26.2652 19 26.5196 18.8946 26.7071 18.7071C26.8946 18.5196 27 18.2652 27 18V16H29C29.5304 16 30.0391 15.7893 30.4142 15.4142C30.7893 15.0391 31 14.5304 31 14V13.59C33.93 14.77 36 17.64 36 21C36 23.08 35.2 24.97 33.9 26.39ZM27 28.93C23.05 28.44 20 25.08 20 21C20 20.38 20.08 19.78 20.21 19.21L25 24V25C25 25.5304 25.2107 26.0391 25.5858 26.4142C25.9609 26.7893 26.4696 27 27 27M28 11C26.6868 11 25.3864 11.2587 24.1732 11.7612C22.9599 12.2638 21.8575 13.0003 20.9289 13.9289C19.0536 15.8043 18 18.3478 18 21C18 23.6522 19.0536 26.1957 20.9289 28.0711C21.8575 28.9997 22.9599 29.7362 24.1732 30.2388C25.3864 30.7413 26.6868 31 28 31C30.6522 31 33.1957 29.9464 35.0711 28.0711C36.9464 26.1957 38 23.6522 38 21C38 19.6868 37.7413 18.3864 37.2388 17.1732C36.7362 15.9599 35.9997 14.8575 35.0711 13.9289C34.1425 13.0003 33.0401 12.2638 31.8268 11.7612C30.6136 11.2587 29.3132 11 28 11Z" fill="#43009B"/>
<path d="M51.1831 26V16.315H54.7971C55.4557 16.315 56.0364 16.4363 56.5391 16.679C57.0504 16.913 57.4491 17.2597 57.7351 17.719C58.0211 18.1697 58.1641 18.72 58.1641 19.37C58.1641 20.0113 58.0167 20.5617 57.7221 21.021C57.4361 21.4717 57.0417 21.8183 56.5391 22.061C56.0364 22.3037 55.4557 22.425 54.7971 22.425H52.9511V26H51.1831ZM52.9511 20.865H54.8231C55.1437 20.865 55.4211 20.8043 55.6551 20.683C55.8891 20.553 56.0711 20.3753 56.2011 20.15C56.3311 19.9247 56.3961 19.6647 56.3961 19.37C56.3961 19.0667 56.3311 18.8067 56.2011 18.59C56.0711 18.3647 55.8891 18.1913 55.6551 18.07C55.4211 17.94 55.1437 17.875 54.8231 17.875H52.9511V20.865ZM63.3438 26.156C62.5984 26.156 61.9354 26 61.3548 25.688C60.7828 25.376 60.3321 24.947 60.0028 24.401C59.6734 23.855 59.5088 23.2353 59.5088 22.542V16.315H61.2768V22.451C61.2768 22.8497 61.3634 23.2093 61.5368 23.53C61.7188 23.8507 61.9658 24.102 62.2778 24.284C62.5898 24.4573 62.9451 24.544 63.3438 24.544C63.7511 24.544 64.1064 24.4573 64.4098 24.284C64.7218 24.102 64.9644 23.8507 65.1378 23.53C65.3198 23.2093 65.4108 22.8497 65.4108 22.451V16.315H67.1788V22.542C67.1788 23.2353 67.0141 23.855 66.6848 24.401C66.3554 24.947 65.9004 25.376 65.3198 25.688C64.7478 26 64.0891 26.156 63.3438 26.156ZM68.9438 26V16.315H73.0258C73.6671 16.315 74.2131 16.4277 74.6638 16.653C75.1231 16.8697 75.4741 17.1817 75.7168 17.589C75.9681 17.9877 76.0938 18.473 76.0938 19.045C76.0938 19.487 75.9725 19.903 75.7298 20.293C75.4958 20.6743 75.1188 20.9907 74.5988 21.242V20.423C75.0755 20.605 75.4525 20.8303 75.7298 21.099C76.0071 21.3677 76.2021 21.6667 76.3148 21.996C76.4275 22.3253 76.4838 22.672 76.4838 23.036C76.4838 23.9633 76.1761 24.6913 75.5608 25.22C74.9541 25.74 74.1091 26 73.0258 26H68.9438ZM70.7118 24.44H73.2078C73.6671 24.44 74.0311 24.3143 74.2998 24.063C74.5771 23.803 74.7158 23.4607 74.7158 23.036C74.7158 22.6113 74.5771 22.269 74.2998 22.009C74.0311 21.749 73.6671 21.619 73.2078 21.619H70.7118V24.44ZM70.7118 20.072H73.1168C73.4808 20.072 73.7711 19.968 73.9878 19.76C74.2045 19.5433 74.3128 19.266 74.3128 18.928C74.3128 18.59 74.2045 18.3213 73.9878 18.122C73.7711 17.9227 73.4808 17.823 73.1168 17.823H70.7118V20.072ZM77.9321 26V16.315H79.7001V24.44H83.8471V26H77.9321ZM84.9907 26V16.315H86.7587V26H84.9907ZM93.1715 26.156C92.4782 26.156 91.8369 26.0303 91.2475 25.779C90.6669 25.5277 90.1555 25.1767 89.7135 24.726C89.2802 24.2753 88.9422 23.7467 88.6995 23.14C88.4569 22.5333 88.3355 21.8703 88.3355 21.151C88.3355 20.4317 88.4525 19.7687 88.6865 19.162C88.9292 18.5467 89.2672 18.018 89.7005 17.576C90.1425 17.1253 90.6582 16.7787 91.2475 16.536C91.8369 16.2847 92.4782 16.159 93.1715 16.159C93.8649 16.159 94.4845 16.276 95.0305 16.51C95.5852 16.744 96.0532 17.056 96.4345 17.446C96.8159 17.8273 97.0889 18.2477 97.2535 18.707L95.6675 19.448C95.4855 18.9627 95.1779 18.564 94.7445 18.252C94.3112 17.9313 93.7869 17.771 93.1715 17.771C92.5649 17.771 92.0275 17.914 91.5595 18.2C91.1002 18.486 90.7405 18.8803 90.4805 19.383C90.2292 19.8857 90.1035 20.475 90.1035 21.151C90.1035 21.827 90.2292 22.4207 90.4805 22.932C90.7405 23.4347 91.1002 23.829 91.5595 24.115C92.0275 24.401 92.5649 24.544 93.1715 24.544C93.7869 24.544 94.3112 24.388 94.7445 24.076C95.1779 23.7553 95.4855 23.3523 95.6675 22.867L97.2535 23.608C97.0889 24.0673 96.8159 24.492 96.4345 24.882C96.0532 25.2633 95.5852 25.571 95.0305 25.805C94.4845 26.039 93.8649 26.156 93.1715 26.156Z" fill="#43009B"/>
</g>
</svg>
