<svg width="68" height="68" viewBox="0 0 68 68" fill="none" xmlns="http://www.w3.org/2000/svg">
<circle cx="34" cy="34" r="34" fill="#D85B00"/>
<path d="M33.891 16.9999C35.365 16.9999 36.7786 17.5855 37.8209 18.6277C38.8632 19.67 39.4487 21.0836 39.4487 22.5576V33.673C39.4487 35.147 38.8632 36.5606 37.8209 37.6029C36.7786 38.6452 35.365 39.2307 33.891 39.2307C32.417 39.2307 31.0034 38.6452 29.9611 37.6029C28.9189 36.5606 28.3333 35.147 28.3333 33.673V22.5576C28.3333 21.0836 28.9189 19.67 29.9611 18.6277C31.0034 17.5855 32.417 16.9999 33.891 16.9999M46.859 33.673C46.859 40.2126 42.0238 45.6035 35.7436 46.5113V52.1987H32.0384V46.5113C25.7583 45.6035 20.9231 40.2126 20.9231 33.673H24.6282C24.6282 36.1297 25.6041 38.4857 27.3412 40.2228C29.0783 41.9599 31.4344 42.9358 33.891 42.9358C36.3477 42.9358 38.7037 41.9599 40.4408 40.2228C42.1779 38.4857 43.1538 36.1297 43.1538 33.673H46.859Z" fill="white"/>
</svg>
