<svg width="220" height="76" viewBox="0 0 220 76" fill="none" xmlns="http://www.w3.org/2000/svg">
<g filter="url(#filter0_d_944_11666)">
<rect x="14" y="10" width="192" height="48" rx="24" fill="white"/>
</g>
<path d="M84.0709 34.4877C84.0695 36.5139 83.2445 38.4527 81.7853 39.8587C80.3264 41.2647 78.3584 42.0174 76.3335 41.944C74.3085 41.8704 72.4002 40.9771 71.0471 39.4688C70.8372 39.2631 70.7217 38.9799 70.7276 38.6861C70.7335 38.3924 70.8603 38.114 71.0781 37.9167C71.296 37.7195 71.5855 37.6209 71.8785 37.6442C72.1714 37.6674 72.4417 37.8104 72.6257 38.0395C73.6633 39.2124 75.1638 39.8701 76.7296 39.8379C78.2951 39.8058 79.7674 39.0874 80.7562 37.8729C81.7447 36.6587 82.1499 35.0712 81.8638 33.5317C81.5778 31.992 80.6297 30.656 79.2708 29.8777C77.912 29.0994 76.2797 28.9577 74.807 29.4901C73.3345 30.0224 72.17 31.175 71.6231 32.6422C71.8213 32.4531 72.0849 32.3476 72.359 32.3476C72.6331 32.3476 72.8967 32.4531 73.0951 32.6422C73.2971 32.8425 73.4106 33.1151 73.4106 33.3995C73.4106 33.684 73.2971 33.9567 73.0951 34.1568L70.9617 36.2902C70.7613 36.4922 70.4888 36.6057 70.2044 36.6057C69.92 36.6057 69.6474 36.4922 69.4471 36.2902L67.3137 34.1568C67.0432 33.8863 66.9374 33.492 67.0366 33.1223C67.1357 32.7527 67.4242 32.464 67.7939 32.365C68.1635 32.2659 68.5578 32.3716 68.8283 32.6422L69.2656 33.0902C69.7276 30.6273 71.3942 28.5604 73.7031 27.5867C76.0123 26.6131 78.6558 26.8625 80.7413 28.2509C82.8274 29.6395 84.0779 31.9816 84.0708 34.4877L84.0709 34.4877Z" fill="#43009B"/>
<path d="M97.5507 40.5V27.835H102.26C103.121 27.835 103.88 27.9937 104.538 28.311C105.206 28.617 105.728 29.0703 106.102 29.671C106.476 30.2603 106.663 30.98 106.663 31.83C106.663 32.7027 106.453 33.445 106.034 34.057C105.626 34.669 105.07 35.1223 104.368 35.417L107.275 40.5H104.657L101.546 34.941L103.042 35.825H99.8627V40.5H97.5507ZM99.8627 33.785H102.294C102.713 33.785 103.076 33.7057 103.382 33.547C103.688 33.377 103.926 33.1447 104.096 32.85C104.266 32.5553 104.351 32.2153 104.351 31.83C104.351 31.4333 104.266 31.0933 104.096 30.81C103.926 30.5153 103.688 30.2887 103.382 30.13C103.076 29.96 102.713 29.875 102.294 29.875H99.8627V33.785ZM112.474 40.704C111.522 40.704 110.689 40.4887 109.975 40.058C109.261 39.6273 108.706 39.0437 108.309 38.307C107.913 37.5703 107.714 36.7543 107.714 35.859C107.714 34.9297 107.913 34.108 108.309 33.394C108.717 32.6687 109.267 32.0963 109.958 31.677C110.661 31.2577 111.443 31.048 112.304 31.048C113.03 31.048 113.664 31.167 114.208 31.405C114.764 31.643 115.234 31.9717 115.619 32.391C116.005 32.8103 116.299 33.292 116.503 33.836C116.707 34.3687 116.809 34.9467 116.809 35.57C116.809 35.7287 116.798 35.893 116.775 36.063C116.764 36.233 116.736 36.3803 116.69 36.505H109.55V34.805H115.432L114.378 35.604C114.48 35.0827 114.452 34.618 114.293 34.21C114.146 33.802 113.897 33.479 113.545 33.241C113.205 33.003 112.792 32.884 112.304 32.884C111.84 32.884 111.426 33.003 111.063 33.241C110.701 33.4677 110.423 33.8077 110.23 34.261C110.049 34.703 109.981 35.2413 110.026 35.876C109.981 36.4427 110.055 36.947 110.247 37.389C110.451 37.8197 110.746 38.154 111.131 38.392C111.528 38.63 111.981 38.749 112.491 38.749C113.001 38.749 113.432 38.6413 113.783 38.426C114.146 38.2107 114.429 37.9217 114.633 37.559L116.435 38.443C116.254 38.885 115.971 39.276 115.585 39.616C115.2 39.956 114.741 40.2223 114.208 40.415C113.687 40.6077 113.109 40.704 112.474 40.704ZM122.016 40.704C121.03 40.704 120.169 40.4717 119.432 40.007C118.707 39.531 118.208 38.8907 117.936 38.086L119.602 37.287C119.84 37.8083 120.169 38.2163 120.588 38.511C121.019 38.8057 121.495 38.953 122.016 38.953C122.424 38.953 122.747 38.8623 122.985 38.681C123.223 38.4997 123.342 38.2617 123.342 37.967C123.342 37.7857 123.291 37.6383 123.189 37.525C123.099 37.4003 122.968 37.2983 122.798 37.219C122.64 37.1283 122.464 37.0547 122.271 36.998L120.758 36.573C119.976 36.3463 119.381 36.0007 118.973 35.536C118.577 35.0713 118.378 34.5217 118.378 33.887C118.378 33.3203 118.52 32.8273 118.803 32.408C119.098 31.9773 119.5 31.643 120.01 31.405C120.532 31.167 121.127 31.048 121.795 31.048C122.668 31.048 123.439 31.2577 124.107 31.677C124.776 32.0963 125.252 32.6857 125.535 33.445L123.835 34.244C123.677 33.8247 123.41 33.4903 123.036 33.241C122.662 32.9917 122.243 32.867 121.778 32.867C121.404 32.867 121.11 32.952 120.894 33.122C120.679 33.292 120.571 33.513 120.571 33.785C120.571 33.955 120.617 34.1023 120.707 34.227C120.798 34.3517 120.923 34.4537 121.081 34.533C121.251 34.6123 121.444 34.686 121.659 34.754L123.138 35.196C123.898 35.4227 124.481 35.7627 124.889 36.216C125.309 36.6693 125.518 37.2247 125.518 37.882C125.518 38.4373 125.371 38.9303 125.076 39.361C124.782 39.7803 124.374 40.109 123.852 40.347C123.331 40.585 122.719 40.704 122.016 40.704ZM131.446 40.602C130.403 40.602 129.593 40.3187 129.015 39.752C128.448 39.174 128.165 38.3637 128.165 37.321V33.241H126.567V31.252H126.737C127.19 31.252 127.542 31.133 127.791 30.895C128.04 30.657 128.165 30.3113 128.165 29.858V29.144H130.392V31.252H132.517V33.241H130.392V37.202C130.392 37.508 130.443 37.7687 130.545 37.984C130.658 38.1993 130.828 38.3637 131.055 38.477C131.293 38.5903 131.593 38.647 131.956 38.647C132.035 38.647 132.126 38.6413 132.228 38.63C132.341 38.6187 132.449 38.6073 132.551 38.596V40.5C132.392 40.5227 132.211 40.5453 132.007 40.568C131.803 40.5907 131.616 40.602 131.446 40.602ZM137.024 40.704C136.378 40.704 135.817 40.5963 135.341 40.381C134.865 40.1657 134.497 39.8597 134.236 39.463C133.975 39.055 133.845 38.5847 133.845 38.052C133.845 37.542 133.958 37.0887 134.185 36.692C134.412 36.284 134.763 35.944 135.239 35.672C135.715 35.4 136.316 35.2073 137.041 35.094L140.067 34.601V36.301L137.466 36.743C137.024 36.8223 136.695 36.964 136.48 37.168C136.265 37.372 136.157 37.6383 136.157 37.967C136.157 38.2843 136.276 38.5393 136.514 38.732C136.763 38.9133 137.069 39.004 137.432 39.004C137.897 39.004 138.305 38.9077 138.656 38.715C139.019 38.511 139.296 38.2333 139.489 37.882C139.693 37.5307 139.795 37.1453 139.795 36.726V34.346C139.795 33.9493 139.636 33.6207 139.319 33.36C139.013 33.088 138.605 32.952 138.095 32.952C137.619 32.952 137.194 33.0823 136.82 33.343C136.457 33.5923 136.191 33.9267 136.021 34.346L134.202 33.462C134.383 32.9747 134.667 32.5553 135.052 32.204C135.449 31.8413 135.913 31.558 136.446 31.354C136.979 31.15 137.557 31.048 138.18 31.048C138.939 31.048 139.608 31.1897 140.186 31.473C140.764 31.745 141.212 32.1303 141.529 32.629C141.858 33.1163 142.022 33.6887 142.022 34.346V40.5H139.914V38.919L140.39 38.885C140.152 39.2817 139.869 39.616 139.54 39.888C139.211 40.1487 138.837 40.3527 138.418 40.5C137.999 40.636 137.534 40.704 137.024 40.704ZM144.08 40.5V31.252H146.171V33.309L146.001 33.003C146.217 32.3117 146.551 31.83 147.004 31.558C147.469 31.286 148.024 31.15 148.67 31.15H149.214V33.122H148.415C147.781 33.122 147.271 33.3203 146.885 33.717C146.5 34.1023 146.307 34.6463 146.307 35.349V40.5H144.08ZM154.904 40.602C153.861 40.602 153.051 40.3187 152.473 39.752C151.906 39.174 151.623 38.3637 151.623 37.321V33.241H150.025V31.252H150.195C150.648 31.252 151 31.133 151.249 30.895C151.498 30.657 151.623 30.3113 151.623 29.858V29.144H153.85V31.252H155.975V33.241H153.85V37.202C153.85 37.508 153.901 37.7687 154.003 37.984C154.116 38.1993 154.286 38.3637 154.513 38.477C154.751 38.5903 155.051 38.647 155.414 38.647C155.493 38.647 155.584 38.6413 155.686 38.63C155.799 38.6187 155.907 38.6073 156.009 38.596V40.5C155.85 40.5227 155.669 40.5453 155.465 40.568C155.261 40.5907 155.074 40.602 154.904 40.602Z" fill="#43009B"/>
<defs>
<filter id="filter0_d_944_11666" x="0" y="0" width="220" height="76" filterUnits="userSpaceOnUse" color-interpolation-filters="sRGB">
<feFlood flood-opacity="0" result="BackgroundImageFix"/>
<feColorMatrix in="SourceAlpha" type="matrix" values="0 0 0 0 0 0 0 0 0 0 0 0 0 0 0 0 0 0 127 0" result="hardAlpha"/>
<feOffset dy="4"/>
<feGaussianBlur stdDeviation="7"/>
<feComposite in2="hardAlpha" operator="out"/>
<feColorMatrix type="matrix" values="0 0 0 0 0 0 0 0 0 0 0 0 0 0 0 0 0 0 0.1 0"/>
<feBlend mode="normal" in2="BackgroundImageFix" result="effect1_dropShadow_944_11666"/>
<feBlend mode="normal" in="SourceGraphic" in2="effect1_dropShadow_944_11666" result="shape"/>
</filter>
</defs>
</svg>
