<svg width="24" height="24" viewBox="0 0 24 24" fill="none" xmlns="http://www.w3.org/2000/svg">
<path d="M0 0L3.48654 3.48654C5.63194 1.33589 8.59071 3.75512e-07 11.8612 5.18469e-07C18.4014 8.04352e-07 23.7224 5.32093 23.7224 11.8612C23.7224 18.4014 18.4014 23.7224 11.8612 23.7224C5.32092 23.7224 -8.04352e-07 18.4014 -5.18469e-07 11.8612L2.37224 11.8612C2.37224 17.0931 6.62921 21.3501 11.8612 21.3501C17.0931 21.3501 21.3501 17.0931 21.3501 11.8612C21.3501 6.62921 17.0931 2.37224 11.8612 2.37224C9.24461 2.37224 6.87625 3.44031 5.15915 5.15915L8.30282 8.30283L-3.62928e-07 8.30283L0 0Z" fill="white"/>
<path d="M8.86247 15.4132V10.009H7.74159V9.44852H9.50297V15.4132H8.86247ZM12.8023 15.5093C12.4927 15.5093 12.2045 15.4559 11.9376 15.3492C11.6761 15.2424 11.4466 15.0903 11.2491 14.8928C11.0516 14.6953 10.9022 14.4605 10.8007 14.1882L11.2891 13.9481C11.4119 14.2576 11.612 14.5032 11.8896 14.6846C12.1725 14.8608 12.4767 14.9488 12.8023 14.9488C13.0639 14.9488 13.296 14.8875 13.4989 14.7647C13.707 14.6419 13.8698 14.4765 13.9872 14.2683C14.1047 14.0548 14.1634 13.8173 14.1634 13.5557C14.1634 13.2835 14.102 13.0433 13.9792 12.8352C13.8618 12.627 13.7017 12.4642 13.4989 12.3468C13.296 12.224 13.0665 12.1627 12.8103 12.1627C12.5488 12.1627 12.3059 12.224 12.0818 12.3468C11.8629 12.4642 11.7028 12.6083 11.6014 12.7791L11.097 12.6831L11.5453 9.44852H14.5637V10.009H11.7775L12.0257 9.79279L11.6654 12.3388L11.4172 12.2267C11.604 11.9972 11.8229 11.8344 12.0737 11.7383C12.3246 11.6369 12.5808 11.5862 12.8423 11.5862C13.2267 11.5862 13.5656 11.6769 13.8591 11.8584C14.1527 12.0346 14.3822 12.2721 14.5477 12.571C14.7185 12.8645 14.8039 13.1928 14.8039 13.5557C14.8039 13.924 14.7158 14.2576 14.5397 14.5565C14.3689 14.8501 14.1314 15.0823 13.8271 15.2531C13.5282 15.4239 13.1866 15.5093 12.8023 15.5093Z" fill="white"/>
</svg>
