<svg width="84" height="24" viewBox="0 0 84 24" fill="none" xmlns="http://www.w3.org/2000/svg">
<rect width="84" height="24" rx="8" fill="white"/>
<path d="M16.8901 17.156C16.2748 17.156 15.7028 17.0433 15.1741 16.818C14.6541 16.5927 14.2034 16.2807 13.8221 15.882C13.4494 15.4747 13.1764 15.0023 13.0031 14.465L14.4721 13.828C14.7061 14.3827 15.0441 14.8203 15.4861 15.141C15.9281 15.453 16.4264 15.609 16.9811 15.609C17.2931 15.609 17.5618 15.5613 17.7871 15.466C18.0211 15.362 18.1988 15.2233 18.3201 15.05C18.4501 14.8767 18.5151 14.6687 18.5151 14.426C18.5151 14.14 18.4284 13.906 18.2551 13.724C18.0904 13.5333 17.8391 13.386 17.5011 13.282L15.6421 12.684C14.8881 12.45 14.3204 12.099 13.9391 11.631C13.5578 11.163 13.3671 10.6127 13.3671 9.98C13.3671 9.42533 13.5014 8.93567 13.7701 8.511C14.0474 8.08633 14.4288 7.757 14.9141 7.523C15.4081 7.28033 15.9714 7.159 16.6041 7.159C17.1848 7.159 17.7178 7.263 18.2031 7.471C18.6884 7.67033 19.1044 7.952 19.4511 8.316C19.8064 8.67133 20.0708 9.09167 20.2441 9.577L18.7881 10.227C18.5974 9.74167 18.3114 9.369 17.9301 9.109C17.5488 8.84033 17.1068 8.706 16.6041 8.706C16.3094 8.706 16.0494 8.758 15.8241 8.862C15.5988 8.95733 15.4211 9.096 15.2911 9.278C15.1698 9.45133 15.1091 9.65933 15.1091 9.902C15.1091 10.1707 15.1958 10.409 15.3691 10.617C15.5424 10.8163 15.8068 10.9723 16.1621 11.085L17.9431 11.644C18.7144 11.8953 19.2908 12.242 19.6721 12.684C20.0621 13.126 20.2571 13.672 20.2571 14.322C20.2571 14.8767 20.1141 15.3663 19.8281 15.791C19.5421 16.2157 19.1478 16.5493 18.6451 16.792C18.1424 17.0347 17.5574 17.156 16.8901 17.156ZM25.0601 17.156C24.3321 17.156 23.6951 16.9913 23.1491 16.662C22.6031 16.3327 22.1784 15.8863 21.8751 15.323C21.5718 14.7597 21.4201 14.1357 21.4201 13.451C21.4201 12.7403 21.5718 12.112 21.8751 11.566C22.1871 11.0113 22.6074 10.5737 23.1361 10.253C23.6734 9.93233 24.2714 9.772 24.9301 9.772C25.4848 9.772 25.9701 9.863 26.3861 10.045C26.8108 10.227 27.1704 10.4783 27.4651 10.799C27.7598 11.1197 27.9851 11.488 28.1411 11.904C28.2971 12.3113 28.3751 12.7533 28.3751 13.23C28.3751 13.3513 28.3664 13.477 28.3491 13.607C28.3404 13.737 28.3188 13.8497 28.2841 13.945H22.8241V12.645H27.3221L26.5161 13.256C26.5941 12.8573 26.5724 12.502 26.4511 12.19C26.3384 11.878 26.1478 11.631 25.8791 11.449C25.6191 11.267 25.3028 11.176 24.9301 11.176C24.5748 11.176 24.2584 11.267 23.9811 11.449C23.7038 11.6223 23.4914 11.8823 23.3441 12.229C23.2054 12.567 23.1534 12.9787 23.1881 13.464C23.1534 13.8973 23.2098 14.283 23.3571 14.621C23.5131 14.9503 23.7384 15.206 24.0331 15.388C24.3364 15.57 24.6831 15.661 25.0731 15.661C25.4631 15.661 25.7924 15.5787 26.0611 15.414C26.3384 15.2493 26.5551 15.0283 26.7111 14.751L28.0891 15.427C27.9504 15.765 27.7338 16.064 27.4391 16.324C27.1444 16.584 26.7934 16.7877 26.3861 16.935C25.9874 17.0823 25.5454 17.156 25.0601 17.156ZM29.666 17V7.159H31.369V17H29.666ZM36.2954 17.156C35.5674 17.156 34.9304 16.9913 34.3844 16.662C33.8384 16.3327 33.4138 15.8863 33.1104 15.323C32.8071 14.7597 32.6554 14.1357 32.6554 13.451C32.6554 12.7403 32.8071 12.112 33.1104 11.566C33.4224 11.0113 33.8428 10.5737 34.3714 10.253C34.9088 9.93233 35.5068 9.772 36.1654 9.772C36.7201 9.772 37.2054 9.863 37.6214 10.045C38.0461 10.227 38.4058 10.4783 38.7004 10.799C38.9951 11.1197 39.2204 11.488 39.3764 11.904C39.5324 12.3113 39.6104 12.7533 39.6104 13.23C39.6104 13.3513 39.6018 13.477 39.5844 13.607C39.5758 13.737 39.5541 13.8497 39.5194 13.945H34.0594V12.645H38.5574L37.7514 13.256C37.8294 12.8573 37.8078 12.502 37.6864 12.19C37.5738 11.878 37.3831 11.631 37.1144 11.449C36.8544 11.267 36.5381 11.176 36.1654 11.176C35.8101 11.176 35.4938 11.267 35.2164 11.449C34.9391 11.6223 34.7268 11.8823 34.5794 12.229C34.4408 12.567 34.3888 12.9787 34.4234 13.464C34.3888 13.8973 34.4451 14.283 34.5924 14.621C34.7484 14.9503 34.9738 15.206 35.2684 15.388C35.5718 15.57 35.9184 15.661 36.3084 15.661C36.6984 15.661 37.0278 15.5787 37.2964 15.414C37.5738 15.2493 37.7904 15.0283 37.9464 14.751L39.3244 15.427C39.1858 15.765 38.9691 16.064 38.6744 16.324C38.3798 16.584 38.0288 16.7877 37.6214 16.935C37.2228 17.0823 36.7808 17.156 36.2954 17.156ZM44.3074 17.156C43.6054 17.156 42.9727 16.9957 42.4094 16.675C41.8547 16.3457 41.4171 15.9037 41.0964 15.349C40.7757 14.7857 40.6154 14.153 40.6154 13.451C40.6154 12.749 40.7757 12.1207 41.0964 11.566C41.4171 11.0113 41.8547 10.5737 42.4094 10.253C42.9727 9.93233 43.6054 9.772 44.3074 9.772C44.8101 9.772 45.2781 9.863 45.7114 10.045C46.1447 10.2183 46.5174 10.461 46.8294 10.773C47.1501 11.0763 47.3797 11.4403 47.5184 11.865L46.0234 12.515C45.8934 12.1597 45.6724 11.8737 45.3604 11.657C45.0571 11.4403 44.7061 11.332 44.3074 11.332C43.9347 11.332 43.6011 11.423 43.3064 11.605C43.0204 11.787 42.7951 12.0383 42.6304 12.359C42.4657 12.6797 42.3834 13.048 42.3834 13.464C42.3834 13.88 42.4657 14.2483 42.6304 14.569C42.7951 14.8897 43.0204 15.141 43.3064 15.323C43.6011 15.505 43.9347 15.596 44.3074 15.596C44.7147 15.596 45.0701 15.4877 45.3734 15.271C45.6767 15.0543 45.8934 14.764 46.0234 14.4L47.5184 15.076C47.3797 15.4747 47.1544 15.8343 46.8424 16.155C46.5304 16.467 46.1577 16.714 45.7244 16.896C45.2911 17.0693 44.8187 17.156 44.3074 17.156ZM52.0346 17.078C51.2372 17.078 50.6176 16.8613 50.1756 16.428C49.7422 15.986 49.5256 15.3663 49.5256 14.569V11.449H48.3036V9.928H48.4336C48.7802 9.928 49.0489 9.837 49.2396 9.655C49.4302 9.473 49.5256 9.20867 49.5256 8.862V8.316H51.2286V9.928H52.8536V11.449H51.2286V14.478C51.2286 14.712 51.2676 14.9113 51.3456 15.076C51.4322 15.2407 51.5622 15.3663 51.7356 15.453C51.9176 15.5397 52.1472 15.583 52.4246 15.583C52.4852 15.583 52.5546 15.5787 52.6326 15.57C52.7192 15.5613 52.8016 15.5527 52.8796 15.544V17C52.7582 17.0173 52.6196 17.0347 52.4636 17.052C52.3076 17.0693 52.1646 17.078 52.0346 17.078ZM55.8412 17L59.1822 7.315H61.4702L64.8112 17H62.8872L62.1982 14.92H58.4542L57.7522 17H55.8412ZM58.9612 13.36H61.6912L60.0792 8.537H60.5732L58.9612 13.36ZM65.7461 17V7.159H67.4491V17H65.7461ZM69.0215 17V7.159H70.7245V17H69.0215Z" fill="#43009B"/>
</svg>
