<svg width="220" height="76" viewBox="0 0 220 76" fill="none" xmlns="http://www.w3.org/2000/svg">
<g filter="url(#filter0_d_312_7336)">
<rect x="14" y="10" width="192" height="48" rx="24" fill="white"/>
</g>
<g clip-path="url(#clip0_312_7336)">
<path d="M69 37C70.66 37 71.99 35.66 71.99 34L72 28C72 26.34 70.66 25 69 25C67.34 25 66 26.34 66 28V34C66 35.66 67.34 37 69 37ZM74.3 34C74.3 37 71.76 39.1 69 39.1C66.24 39.1 63.7 37 63.7 34H62C62 37.41 64.72 40.23 68 40.72V44H70V40.72C73.28 40.24 76 37.42 76 34H74.3Z" fill="#43009B"/>
</g>
<path d="M92.8303 40V29.375H89.5493V27.335H98.3893V29.375H95.1593V40H92.8303ZM98.6005 40V30.752H100.691V32.809L100.521 32.503C100.737 31.8117 101.071 31.33 101.524 31.058C101.989 30.786 102.544 30.65 103.19 30.65H103.734V32.622H102.935C102.301 32.622 101.791 32.8203 101.405 33.217C101.02 33.6023 100.827 34.1463 100.827 34.849V40H98.6005ZM106.081 43.757C105.832 43.757 105.588 43.7343 105.35 43.689C105.112 43.655 104.897 43.5927 104.704 43.502V41.632C104.851 41.666 105.027 41.7 105.231 41.734C105.446 41.768 105.645 41.785 105.826 41.785C106.336 41.785 106.704 41.666 106.931 41.428C107.169 41.19 107.379 40.8783 107.56 40.493L108.172 39.065L108.138 40.935L104.109 30.752H106.506L109.328 38.266H108.478L111.283 30.752H113.697L109.668 40.935C109.43 41.5357 109.141 42.0457 108.801 42.465C108.461 42.8843 108.064 43.2017 107.611 43.417C107.169 43.6437 106.659 43.757 106.081 43.757ZM120.746 40.204C120.1 40.204 119.539 40.0963 119.063 39.881C118.587 39.6657 118.219 39.3597 117.958 38.963C117.698 38.555 117.567 38.0847 117.567 37.552C117.567 37.042 117.681 36.5887 117.907 36.192C118.134 35.784 118.485 35.444 118.961 35.172C119.437 34.9 120.038 34.7073 120.763 34.594L123.789 34.101V35.801L121.188 36.243C120.746 36.3223 120.418 36.464 120.202 36.668C119.987 36.872 119.879 37.1383 119.879 37.467C119.879 37.7843 119.998 38.0393 120.236 38.232C120.486 38.4133 120.792 38.504 121.154 38.504C121.619 38.504 122.027 38.4077 122.378 38.215C122.741 38.011 123.019 37.7333 123.211 37.382C123.415 37.0307 123.517 36.6453 123.517 36.226V33.846C123.517 33.4493 123.359 33.1207 123.041 32.86C122.735 32.588 122.327 32.452 121.817 32.452C121.341 32.452 120.916 32.5823 120.542 32.843C120.18 33.0923 119.913 33.4267 119.743 33.846L117.924 32.962C118.106 32.4747 118.389 32.0553 118.774 31.704C119.171 31.3413 119.636 31.058 120.168 30.854C120.701 30.65 121.279 30.548 121.902 30.548C122.662 30.548 123.33 30.6897 123.908 30.973C124.486 31.245 124.934 31.6303 125.251 32.129C125.58 32.6163 125.744 33.1887 125.744 33.846V40H123.636V38.419L124.112 38.385C123.874 38.7817 123.591 39.116 123.262 39.388C122.934 39.6487 122.56 39.8527 122.14 40C121.721 40.136 121.256 40.204 120.746 40.204ZM131.101 40.204C130.387 40.204 129.763 40.0453 129.231 39.728C128.709 39.4107 128.307 38.9687 128.024 38.402C127.752 37.8353 127.616 37.1723 127.616 36.413V30.752H129.843V36.226C129.843 36.6113 129.916 36.9513 130.064 37.246C130.222 37.5293 130.443 37.756 130.727 37.926C131.021 38.0847 131.35 38.164 131.713 38.164C132.075 38.164 132.398 38.0847 132.682 37.926C132.965 37.756 133.186 37.5237 133.345 37.229C133.503 36.9343 133.583 36.583 133.583 36.175V30.752H135.81V40H133.702V38.181L133.889 38.504C133.673 39.0707 133.316 39.4957 132.818 39.779C132.33 40.0623 131.758 40.204 131.101 40.204ZM142.181 40.204C141.285 40.204 140.486 39.9943 139.784 39.575C139.081 39.1443 138.526 38.5607 138.118 37.824C137.71 37.0873 137.506 36.2713 137.506 35.376C137.506 34.4693 137.71 33.6533 138.118 32.928C138.526 32.2027 139.081 31.6247 139.784 31.194C140.498 30.7633 141.291 30.548 142.164 30.548C142.866 30.548 143.49 30.6897 144.034 30.973C144.589 31.245 145.025 31.6303 145.343 32.129L145.003 32.588V27.131H147.23V40H145.122V38.215L145.36 38.657C145.042 39.1557 144.6 39.541 144.034 39.813C143.467 40.0737 142.849 40.204 142.181 40.204ZM142.419 38.164C142.929 38.164 143.376 38.045 143.762 37.807C144.147 37.569 144.447 37.2403 144.663 36.821C144.889 36.4017 145.003 35.92 145.003 35.376C145.003 34.8433 144.889 34.3673 144.663 33.948C144.447 33.5173 144.147 33.183 143.762 32.945C143.376 32.707 142.929 32.588 142.419 32.588C141.92 32.588 141.472 32.7127 141.076 32.962C140.679 33.2 140.367 33.5287 140.141 33.948C139.925 34.356 139.818 34.832 139.818 35.376C139.818 35.92 139.925 36.4017 140.141 36.821C140.367 37.2403 140.679 37.569 141.076 37.807C141.472 38.045 141.92 38.164 142.419 38.164ZM149.302 40V30.752H151.529V40H149.302ZM149.302 29.715V27.335H151.529V29.715H149.302ZM158.107 40.204C157.2 40.204 156.373 39.9943 155.625 39.575C154.888 39.1557 154.299 38.5833 153.857 37.858C153.426 37.1327 153.211 36.3053 153.211 35.376C153.211 34.4467 153.426 33.6193 153.857 32.894C154.299 32.1687 154.888 31.5963 155.625 31.177C156.362 30.7577 157.189 30.548 158.107 30.548C159.014 30.548 159.835 30.7577 160.572 31.177C161.309 31.5963 161.892 32.1687 162.323 32.894C162.765 33.608 162.986 34.4353 162.986 35.376C162.986 36.3053 162.765 37.1327 162.323 37.858C161.881 38.5833 161.292 39.1557 160.555 39.575C159.818 39.9943 159.002 40.204 158.107 40.204ZM158.107 38.164C158.606 38.164 159.042 38.045 159.416 37.807C159.801 37.569 160.102 37.2403 160.317 36.821C160.544 36.3903 160.657 35.9087 160.657 35.376C160.657 34.832 160.544 34.356 160.317 33.948C160.102 33.5287 159.801 33.2 159.416 32.962C159.042 32.7127 158.606 32.588 158.107 32.588C157.597 32.588 157.149 32.7127 156.764 32.962C156.379 33.2 156.073 33.5287 155.846 33.948C155.631 34.356 155.523 34.832 155.523 35.376C155.523 35.9087 155.631 36.3903 155.846 36.821C156.073 37.2403 156.379 37.569 156.764 37.807C157.149 38.045 157.597 38.164 158.107 38.164Z" fill="#43009B"/>
<defs>
<filter id="filter0_d_312_7336" x="0" y="0" width="220" height="76" filterUnits="userSpaceOnUse" color-interpolation-filters="sRGB">
<feFlood flood-opacity="0" result="BackgroundImageFix"/>
<feColorMatrix in="SourceAlpha" type="matrix" values="0 0 0 0 0 0 0 0 0 0 0 0 0 0 0 0 0 0 127 0" result="hardAlpha"/>
<feOffset dy="4"/>
<feGaussianBlur stdDeviation="7"/>
<feComposite in2="hardAlpha" operator="out"/>
<feColorMatrix type="matrix" values="0 0 0 0 0 0 0 0 0 0 0 0 0 0 0 0 0 0 0.1 0"/>
<feBlend mode="normal" in2="BackgroundImageFix" result="effect1_dropShadow_312_7336"/>
<feBlend mode="normal" in="SourceGraphic" in2="effect1_dropShadow_312_7336" result="shape"/>
</filter>
<clipPath id="clip0_312_7336">
<rect width="24" height="24" fill="white" transform="translate(57 23)"/>
</clipPath>
</defs>
</svg>
