<svg width="220" height="76" viewBox="0 0 220 76" fill="none" xmlns="http://www.w3.org/2000/svg">
<g filter="url(#filter0_d_312_7272)">
<rect x="14" y="10" width="192" height="48" rx="24" fill="white"/>
</g>
<g clip-path="url(#clip0_312_7272)">
<path d="M83 25H67C65.9 25 65 25.9 65 27V45L69 41H83C84.1 41 85 40.1 85 39V27C85 25.9 84.1 25 83 25ZM83 39H69L67 41V27H83V39ZM70 32H72V34H70V32ZM74 32H76V34H74V32ZM78 32H80V34H78V32Z" fill="#43009B"/>
</g>
<path d="M98.8547 40V29.375H95.5737V27.335H104.414V29.375H101.184V40H98.8547ZM104.625 40V30.752H106.716V32.809L106.546 32.503C106.761 31.8117 107.096 31.33 107.549 31.058C108.014 30.786 108.569 30.65 109.215 30.65H109.759V32.622H108.96C108.325 32.622 107.815 32.8203 107.43 33.217C107.045 33.6023 106.852 34.1463 106.852 34.849V40H104.625ZM112.105 43.757C111.856 43.757 111.612 43.7343 111.374 43.689C111.136 43.655 110.921 43.5927 110.728 43.502V41.632C110.876 41.666 111.051 41.7 111.255 41.734C111.471 41.768 111.669 41.785 111.85 41.785C112.36 41.785 112.729 41.666 112.955 41.428C113.193 41.19 113.403 40.8783 113.584 40.493L114.196 39.065L114.162 40.935L110.133 30.752H112.53L115.352 38.266H114.502L117.307 30.752H119.721L115.692 40.935C115.454 41.5357 115.165 42.0457 114.825 42.465C114.485 42.8843 114.089 43.2017 113.635 43.417C113.193 43.6437 112.683 43.757 112.105 43.757ZM128.182 40.102C127.139 40.102 126.329 39.8187 125.751 39.252C125.184 38.674 124.901 37.8637 124.901 36.821V32.741H123.303V30.752H123.473C123.926 30.752 124.277 30.633 124.527 30.395C124.776 30.157 124.901 29.8113 124.901 29.358V28.644H127.128V30.752H129.253V32.741H127.128V36.702C127.128 37.008 127.179 37.2687 127.281 37.484C127.394 37.6993 127.564 37.8637 127.791 37.977C128.029 38.0903 128.329 38.147 128.692 38.147C128.771 38.147 128.862 38.1413 128.964 38.13C129.077 38.1187 129.185 38.1073 129.287 38.096V40C129.128 40.0227 128.947 40.0453 128.743 40.068C128.539 40.0907 128.352 40.102 128.182 40.102ZM135.291 40.204C134.339 40.204 133.506 39.9887 132.792 39.558C132.078 39.1273 131.523 38.5437 131.126 37.807C130.729 37.0703 130.531 36.2543 130.531 35.359C130.531 34.4297 130.729 33.608 131.126 32.894C131.534 32.1687 132.084 31.5963 132.775 31.177C133.478 30.7577 134.26 30.548 135.121 30.548C135.846 30.548 136.481 30.667 137.025 30.905C137.58 31.143 138.051 31.4717 138.436 31.891C138.821 32.3103 139.116 32.792 139.32 33.336C139.524 33.8687 139.626 34.4467 139.626 35.07C139.626 35.2287 139.615 35.393 139.592 35.563C139.581 35.733 139.552 35.8803 139.507 36.005H132.367V34.305H138.249L137.195 35.104C137.297 34.5827 137.269 34.118 137.11 33.71C136.963 33.302 136.713 32.979 136.362 32.741C136.022 32.503 135.608 32.384 135.121 32.384C134.656 32.384 134.243 32.503 133.88 32.741C133.517 32.9677 133.24 33.3077 133.047 33.761C132.866 34.203 132.798 34.7413 132.843 35.376C132.798 35.9427 132.871 36.447 133.064 36.889C133.268 37.3197 133.563 37.654 133.948 37.892C134.345 38.13 134.798 38.249 135.308 38.249C135.818 38.249 136.249 38.1413 136.6 37.926C136.963 37.7107 137.246 37.4217 137.45 37.059L139.252 37.943C139.071 38.385 138.787 38.776 138.402 39.116C138.017 39.456 137.558 39.7223 137.025 39.915C136.504 40.1077 135.926 40.204 135.291 40.204ZM140.315 40L143.545 35.359L140.298 30.752H142.916L145.449 34.492H144.276L146.809 30.752H149.41L146.18 35.359L149.393 40H146.792L144.293 36.277H145.432L142.933 40H140.315ZM154.844 40.102C153.801 40.102 152.991 39.8187 152.413 39.252C151.846 38.674 151.563 37.8637 151.563 36.821V32.741H149.965V30.752H150.135C150.588 30.752 150.939 30.633 151.189 30.395C151.438 30.157 151.563 29.8113 151.563 29.358V28.644H153.79V30.752H155.915V32.741H153.79V36.702C153.79 37.008 153.841 37.2687 153.943 37.484C154.056 37.6993 154.226 37.8637 154.453 37.977C154.691 38.0903 154.991 38.147 155.354 38.147C155.433 38.147 155.524 38.1413 155.626 38.13C155.739 38.1187 155.847 38.1073 155.949 38.096V40C155.79 40.0227 155.609 40.0453 155.405 40.068C155.201 40.0907 155.014 40.102 154.844 40.102Z" fill="#43009B"/>
<defs>
<filter id="filter0_d_312_7272" x="0" y="0" width="220" height="76" filterUnits="userSpaceOnUse" color-interpolation-filters="sRGB">
<feFlood flood-opacity="0" result="BackgroundImageFix"/>
<feColorMatrix in="SourceAlpha" type="matrix" values="0 0 0 0 0 0 0 0 0 0 0 0 0 0 0 0 0 0 127 0" result="hardAlpha"/>
<feOffset dy="4"/>
<feGaussianBlur stdDeviation="7"/>
<feComposite in2="hardAlpha" operator="out"/>
<feColorMatrix type="matrix" values="0 0 0 0 0 0 0 0 0 0 0 0 0 0 0 0 0 0 0.1 0"/>
<feBlend mode="normal" in2="BackgroundImageFix" result="effect1_dropShadow_312_7272"/>
<feBlend mode="normal" in="SourceGraphic" in2="effect1_dropShadow_312_7272" result="shape"/>
</filter>
<clipPath id="clip0_312_7272">
<rect width="24" height="24" fill="white" transform="translate(63 23)"/>
</clipPath>
</defs>
</svg>
