<svg width="110" height="110" viewBox="0 0 110 110" fill="none" xmlns="http://www.w3.org/2000/svg">
<path d="M108 55C108 84.2711 84.2711 108 55 108C25.7289 108 2 84.2711 2 55C2 25.7289 25.7289 2 55 2C84.2711 2 108 25.7289 108 55Z" stroke="white" stroke-width="4"/>
<path d="M42.4819 43.2529H47.1762L50.3057 40H59.6943L62.8238 43.2529H67.5181C68.3481 43.2529 69.1441 43.5956 69.731 44.2057C70.3179 44.8157 70.6476 45.6431 70.6476 46.5058V66.0233C70.6476 66.886 70.3179 67.7134 69.731 68.3234C69.1441 68.9335 68.3481 69.2762 67.5181 69.2762H42.4819C41.6519 69.2762 40.8559 68.9335 40.269 68.3234C39.6821 67.7134 39.3524 66.886 39.3524 66.0233V46.5058C39.3524 45.6431 39.6821 44.8157 40.269 44.2057C40.8559 43.5956 41.6519 43.2529 42.4819 43.2529M55 48.1323C52.925 48.1323 50.935 48.9891 49.4677 50.5142C48.0005 52.0393 47.1762 54.1077 47.1762 56.2645C47.1762 58.4214 48.0005 60.4898 49.4677 62.0149C50.935 63.54 52.925 64.3968 55 64.3968C57.075 64.3968 59.065 63.54 60.5323 62.0149C61.9995 60.4898 62.8238 58.4214 62.8238 56.2645C62.8238 54.1077 61.9995 52.0393 60.5323 50.5142C59.065 48.9891 57.075 48.1323 55 48.1323M55 51.3852C56.245 51.3852 57.439 51.8993 58.3194 52.8143C59.1997 53.7294 59.6943 54.9705 59.6943 56.2645C59.6943 57.5586 59.1997 58.7997 58.3194 59.7148C57.439 60.6298 56.245 61.1439 55 61.1439C53.755 61.1439 52.561 60.6298 51.6806 59.7148C50.8003 58.7997 50.3057 57.5586 50.3057 56.2645C50.3057 54.9705 50.8003 53.7294 51.6806 52.8143C52.561 51.8993 53.755 51.3852 55 51.3852V51.3852Z" fill="white"/>
</svg>
